<?xml version="1.0" encoding="utf-8"?>
<!-- Generator: $$$/GeneralStr/196=Adobe Illustrator 27.6.0, SVG Export Plug-In . SVG Version: 6.00 Build 0)  -->
<svg version="1.1" id="Ebene_1" xmlns="http://www.w3.org/2000/svg" xmlns:xlink="http://www.w3.org/1999/xlink" x="0px" y="0px"
	 viewBox="0 0 150.8 21.4" style="enable-background:new 0 0 150.8 21.4;" xml:space="preserve">
<style type="text/css">
	.st0{fill:#FFFFFF;}
</style>
<g>
	<path class="st0" d="M7.8,6.5c1.8,0,3,0.6,3,2.2c0,0.9-0.5,1.6-1.3,1.9c0.8,0.3,1.4,0.9,1.4,2c0,1.6-1.2,2.3-3.1,2.3H4.6V6.5H7.8z
		 M5.5,7.4v2.8h2.3c1.2,0,2.1-0.3,2.1-1.4c0-1.1-0.9-1.4-2.1-1.4H5.5z M5.5,11.1V14h2.4c1.3,0,2.1-0.3,2.1-1.5
		c0-1.1-0.8-1.4-2.1-1.4H5.5z"/>
	<path class="st0" d="M17.9,12.1c0,0.1,0,0.2,0,0.3h-4.6c0.1,1.2,1,1.9,2,1.9c0.7,0,1.3-0.3,1.8-0.7l0.5,0.6
		c-0.7,0.7-1.5,0.9-2.3,0.9c-1.7,0-2.9-1.2-2.9-3c0-1.7,1.2-3,2.8-3C16.7,9.1,17.8,10.3,17.9,12.1z M13.3,11.7h3.6
		c-0.1-1.1-0.8-1.7-1.8-1.7C14.1,9.9,13.4,10.6,13.3,11.7z"/>
	<path class="st0" d="M20.6,7.2c0,0.4-0.3,0.6-0.6,0.6c-0.4,0-0.6-0.3-0.6-0.6s0.3-0.6,0.6-0.6C20.3,6.6,20.6,6.9,20.6,7.2z
		 M20.4,14.9h-0.9V9.2h0.9V14.9z"/>
	<path class="st0" d="M31,12.4c0,1.8-1.3,2.6-2.7,2.6c-1.5,0-2.8-0.8-2.8-2.6V9.1H27v3.2c0,0.9,0.5,1.3,1.2,1.3
		c0.7,0,1.2-0.4,1.2-1.3V9.1H31V12.4z"/>
	<path class="st0" d="M38.1,11.2v3.7h-1.6v-3.2c0-0.8-0.4-1.3-1.1-1.3c-0.7,0-1.2,0.4-1.2,1.3v3.2h-1.6V9.1h1.5v0.7
		c0.4-0.6,1-0.8,1.7-0.8C37.1,9,38.1,9.9,38.1,11.2z"/>
	<path class="st0" d="M43.8,10.7c-0.5-0.2-1.2-0.5-1.9-0.5c-0.6,0-0.9,0.2-0.9,0.5c0,0.3,0.4,0.4,0.9,0.5l0.5,0.1
		c1.3,0.2,2,0.8,2,1.7c0,1.2-1,2-2.7,2c-0.8,0-1.8-0.2-2.6-0.7l0.6-1.2c0.5,0.3,1.1,0.6,2,0.6c0.7,0,1.1-0.2,1.1-0.5
		c0-0.3-0.3-0.4-1-0.5l-0.5-0.1c-1.3-0.2-2-0.8-2-1.8c0-1.2,0.9-1.9,2.5-1.9c0.9,0,1.7,0.2,2.4,0.6L43.8,10.7z"/>
	<path class="st0" d="M49.8,11.5h0.8l2.2-2.3H54l-2.6,2.7l2.6,3h-1.1l-2.2-2.6h-0.8v2.6h-0.9V6.3h0.9V11.5z"/>
	<path class="st0" d="M60.4,14.9h-0.9v-0.8c-0.5,0.6-1.1,1-2.1,1c-1.6,0-2.8-1.2-2.8-3c0-1.7,1.2-3,2.8-3c0.9,0,1.6,0.4,2.1,1V9.2
		h0.9V14.9z M55.5,12.1c0,1.2,0.8,2.1,2,2.1c1.2,0,2-0.9,2-2.1c0-1.2-0.8-2.1-2-2.1C56.3,10,55.5,10.9,55.5,12.1z"/>
	<path class="st0" d="M67.7,11.4v3.5h-0.9v-3.2c0-1.1-0.6-1.7-1.6-1.7c-1,0-1.7,0.7-1.7,1.7v3.2h-0.9V9.2h0.9v0.8
		c0.5-0.7,1.2-0.9,1.9-0.9C66.7,9.1,67.7,10,67.7,11.4z"/>
	<path class="st0" d="M74.9,11.4v3.5H74v-3.2c0-1.1-0.6-1.7-1.6-1.7c-1,0-1.7,0.7-1.7,1.7v3.2h-0.9V9.2h0.9v0.8
		c0.5-0.7,1.2-0.9,1.9-0.9C73.9,9.1,74.9,10,74.9,11.4z"/>
	<path class="st0" d="M80.7,10.5c-0.4-0.3-1.1-0.5-1.9-0.5c-0.8,0-1.3,0.3-1.3,0.9c0,0.5,0.4,0.7,1.2,0.8l0.7,0.1
		c1.2,0.2,1.9,0.7,1.9,1.6c0,1.1-1,1.8-2.5,1.8c-0.7,0-1.6-0.2-2.4-0.7l0.4-0.7c0.4,0.3,1,0.6,2,0.6c1,0,1.6-0.3,1.6-0.9
		c0-0.5-0.4-0.7-1.2-0.8l-0.7-0.1c-1.3-0.2-1.9-0.7-1.9-1.6c0-1.1,0.9-1.7,2.3-1.7c0.9,0,1.7,0.3,2.3,0.6L80.7,10.5z"/>
	<path class="st0" d="M86.7,10.1h-2.5v2.9c0,0.9,0.5,1.3,1.1,1.3c0.4,0,0.9-0.2,1.2-0.4l0.4,0.7c-0.4,0.3-1,0.6-1.7,0.6
		c-1.2,0-1.9-0.7-1.9-2.1v-2.9h-1.2V9.2h1.2V7.4h0.9v1.8h2.5V10.1z"/>
	<path class="st0" d="M96,10.1V6.3h0.9v8.6H96v-0.8c-0.5,0.6-1.1,1-2.1,1c-1.6,0-2.8-1.2-2.8-3c0-1.7,1.2-3,2.8-3
		C94.8,9.1,95.5,9.5,96,10.1z M92,12.1c0,1.2,0.8,2.1,2,2.1c1.2,0,2-0.9,2-2.1c0-1.2-0.8-2.1-2-2.1C92.8,10,92,10.9,92,12.1z"/>
	<path class="st0" d="M104.1,12.6c0,1.7-1.2,2.5-2.6,2.5c-1.4,0-2.6-0.8-2.6-2.5V9.2h0.9v3.2c0,1.2,0.7,1.7,1.7,1.7
		c1,0,1.7-0.6,1.7-1.7V9.2h0.9V12.6z"/>
	<path class="st0" d="M110.6,14.9h-1.6V6.3h1.6V14.9z"/>
	<path class="st0" d="M118,14.9h-1.5v-0.6c-0.4,0.5-0.9,0.8-1.7,0.8c-1.6,0-2.8-1.3-2.8-3.1s1.2-3.1,2.8-3.1c0.8,0,1.4,0.3,1.7,0.8
		V9.1h1.5V14.9z M113.5,12c0,0.9,0.6,1.6,1.5,1.6c0.9,0,1.5-0.7,1.5-1.6c0-0.9-0.6-1.6-1.5-1.6C114.1,10.4,113.5,11.1,113.5,12z"/>
	<path class="st0" d="M125.1,11.2v3.7h-1.6v-3.2c0-0.8-0.4-1.3-1.1-1.3c-0.7,0-1.2,0.4-1.2,1.3v3.2h-1.6V9.1h1.5v0.7
		c0.4-0.6,1-0.8,1.7-0.8C124.2,9,125.1,9.9,125.1,11.2z"/>
	<path class="st0" d="M130.9,9.7V6.3h1.6v8.6h-1.5v-0.6c-0.4,0.5-0.9,0.8-1.7,0.8c-1.6,0-2.8-1.3-2.8-3.1s1.2-3.1,2.8-3.1
		C130,9,130.5,9.3,130.9,9.7z M128,12c0,0.9,0.6,1.6,1.5,1.6c0.9,0,1.5-0.7,1.5-1.6c0-0.9-0.6-1.6-1.5-1.6
		C128.6,10.4,128,11.1,128,12z"/>
	<path class="st0" d="M139.5,12c0,0.2,0,0.4,0,0.5h-4.1c0.2,0.8,0.8,1.2,1.5,1.2c0.5,0,1-0.2,1.5-0.6l0.9,1
		c-0.7,0.6-1.5,0.9-2.5,0.9c-1.8,0-3-1.2-3-3c0-1.8,1.2-3.1,2.9-3.1C138.4,9,139.5,10.2,139.5,12z M135.4,11.5h2.6
		c-0.1-0.7-0.6-1.2-1.3-1.2C135.9,10.3,135.5,10.8,135.4,11.5z"/>
	<path class="st0" d="M146.3,11.2v3.7h-1.6v-3.2c0-0.8-0.4-1.3-1.1-1.3c-0.7,0-1.2,0.4-1.2,1.3v3.2h-1.6V9.1h1.5v0.7
		c0.4-0.6,1-0.8,1.7-0.8C145.3,9,146.3,9.9,146.3,11.2z"/>
</g>
<g>
	<path class="st0" d="M7.6,6.5c2,0,3.2,0.7,3.2,2.3c0,0.8-0.5,1.5-1.2,1.8c0.8,0.3,1.4,1,1.4,1.9c0,1.6-1.1,2.4-3.2,2.4H4.2V6.5H7.6
		z M5.9,8v2h1.7c0.8,0,1.5-0.2,1.5-1c0-0.8-0.7-1-1.5-1H5.9z M5.9,11.4v2l1.9,0c0.9,0,1.5-0.2,1.5-1c0-0.8-0.6-1-1.5-1H5.9z"/>
	<path class="st0" d="M17.8,12c0,0.2,0,0.4,0,0.5h-4.1c0.2,0.8,0.8,1.2,1.5,1.2c0.5,0,1-0.2,1.5-0.6l0.9,1c-0.7,0.6-1.5,0.9-2.5,0.9
		c-1.8,0-3-1.2-3-3S13.2,9,15,9C16.7,9,17.8,10.2,17.8,12z M13.7,11.5h2.6c-0.1-0.7-0.6-1.2-1.3-1.2C14.2,10.3,13.8,10.8,13.7,11.5z
		"/>
	<path class="st0" d="M20.9,7.2c0,0.6-0.4,1-1,1c-0.6,0-1-0.4-1-1c0-0.6,0.4-1,1-1C20.4,6.2,20.9,6.6,20.9,7.2z M20.7,14.9h-1.6V9.1
		h1.6V14.9z"/>
	<path class="st0" d="M31,12.4c0,1.8-1.3,2.6-2.7,2.6c-1.5,0-2.8-0.8-2.8-2.6V9.1H27v3.2c0,0.9,0.5,1.3,1.2,1.3
		c0.7,0,1.2-0.4,1.2-1.3V9.1H31V12.4z"/>
	<path class="st0" d="M38,11.2v3.7h-1.6v-3.2c0-0.8-0.4-1.3-1.1-1.3c-0.7,0-1.2,0.4-1.2,1.3v3.2h-1.6V9.1h1.5v0.7
		c0.4-0.6,1-0.8,1.7-0.8C37.1,9,38,9.9,38,11.2z"/>
	<path class="st0" d="M43.8,10.7c-0.5-0.2-1.2-0.5-1.9-0.5c-0.6,0-0.9,0.2-0.9,0.5c0,0.3,0.4,0.4,0.9,0.5l0.5,0.1
		c1.3,0.2,2,0.8,2,1.7c0,1.2-1,2-2.7,2c-0.8,0-1.8-0.1-2.6-0.7l0.6-1.2c0.5,0.3,1.1,0.6,2,0.6c0.7,0,1.1-0.2,1.1-0.5
		c0-0.3-0.3-0.4-1-0.5l-0.5-0.1c-1.3-0.2-2-0.8-2-1.8c0-1.2,0.9-1.9,2.5-1.9c0.9,0,1.7,0.2,2.4,0.6L43.8,10.7z"/>
	<path class="st0" d="M49.8,11.5h0.8l2.2-2.3H54l-2.6,2.7l2.6,3h-1.1l-2.2-2.6h-0.8v2.6h-0.9V6.3h0.9V11.5z"/>
	<path class="st0" d="M60.4,14.9h-0.9v-0.8c-0.5,0.6-1.1,1-2.1,1c-1.6,0-2.8-1.2-2.8-3c0-1.7,1.2-3,2.8-3c0.9,0,1.6,0.4,2.1,1V9.2
		h0.9V14.9z M55.5,12.1c0,1.2,0.8,2.1,2,2.1c1.2,0,2-0.9,2-2.1c0-1.2-0.8-2.1-2-2.1C56.3,10,55.5,10.9,55.5,12.1z"/>
	<path class="st0" d="M67.7,11.4v3.5h-0.9v-3.2c0-1.1-0.6-1.7-1.6-1.7c-1,0-1.7,0.7-1.7,1.7v3.2h-0.9V9.2h0.9v0.8
		c0.5-0.7,1.2-0.9,1.9-0.9C66.7,9.1,67.7,10,67.7,11.4z"/>
	<path class="st0" d="M74.9,11.4v3.5H74v-3.2c0-1.1-0.6-1.7-1.6-1.7c-1,0-1.7,0.7-1.7,1.7v3.2h-0.9V9.2h0.9v0.8
		c0.5-0.7,1.2-0.9,1.9-0.9C73.9,9.1,74.9,10,74.9,11.4z"/>
	<path class="st0" d="M80.7,10.5c-0.4-0.3-1.1-0.5-1.9-0.5c-0.8,0-1.3,0.3-1.3,0.9c0,0.5,0.4,0.7,1.2,0.8l0.7,0.1
		c1.2,0.2,1.9,0.7,1.9,1.6c0,1.1-1,1.8-2.5,1.8c-0.7,0-1.6-0.2-2.4-0.7l0.4-0.7c0.4,0.3,1,0.6,2,0.6c1,0,1.6-0.3,1.6-0.9
		c0-0.5-0.4-0.7-1.2-0.8l-0.7-0.1c-1.3-0.2-1.9-0.7-1.9-1.6c0-1.1,0.9-1.7,2.3-1.7c0.9,0,1.7,0.3,2.3,0.6L80.7,10.5z"/>
	<path class="st0" d="M86.7,10.1h-2.5v2.9c0,0.9,0.5,1.3,1.1,1.3c0.4,0,0.9-0.2,1.2-0.4l0.4,0.7c-0.4,0.3-1,0.6-1.7,0.6
		c-1.2,0-1.9-0.7-1.9-2.1v-2.9h-1.2V9.2h1.2V7.4h0.9v1.8h2.5V10.1z"/>
	<path class="st0" d="M96,10.1V6.3h0.9v8.6H96v-0.8c-0.5,0.6-1.1,1-2.1,1c-1.6,0-2.8-1.2-2.8-3c0-1.7,1.2-3,2.8-3
		C94.8,9.1,95.5,9.5,96,10.1z M92,12.1c0,1.2,0.8,2.1,2,2.1c1.2,0,2-0.9,2-2.1c0-1.2-0.8-2.1-2-2.1C92.8,10,92,10.9,92,12.1z"/>
	<path class="st0" d="M104.1,12.6c0,1.7-1.2,2.5-2.6,2.5c-1.4,0-2.6-0.8-2.6-2.5V9.2h0.9v3.2c0,1.2,0.7,1.7,1.7,1.7
		c1,0,1.7-0.6,1.7-1.7V9.2h0.9V12.6z"/>
	<path class="st0" d="M110.6,14.9h-1.6V6.3h1.6V14.9z"/>
	<path class="st0" d="M118,14.9h-1.5v-0.6c-0.4,0.5-0.9,0.8-1.7,0.8c-1.6,0-2.8-1.3-2.8-3.1c0-1.7,1.2-3.1,2.8-3.1
		c0.8,0,1.4,0.3,1.7,0.8V9.1h1.5V14.9z M113.5,12c0,0.9,0.6,1.6,1.5,1.6c0.9,0,1.5-0.7,1.5-1.6c0-0.9-0.6-1.6-1.5-1.6
		C114.1,10.4,113.5,11.1,113.5,12z"/>
	<path class="st0" d="M125.1,11.2v3.7h-1.6v-3.2c0-0.8-0.4-1.3-1.1-1.3c-0.7,0-1.2,0.4-1.2,1.3v3.2h-1.6V9.1h1.5v0.7
		c0.4-0.6,1-0.8,1.7-0.8C124.2,9,125.1,9.9,125.1,11.2z"/>
	<path class="st0" d="M130.9,9.7V6.3h1.6v8.6h-1.5v-0.6c-0.4,0.5-0.9,0.8-1.7,0.8c-1.6,0-2.8-1.3-2.8-3.1c0-1.7,1.2-3.1,2.8-3.1
		C130,9,130.5,9.3,130.9,9.7z M128,12c0,0.9,0.6,1.6,1.5,1.6c0.9,0,1.5-0.7,1.5-1.6c0-0.9-0.6-1.6-1.5-1.6
		C128.6,10.4,128,11.1,128,12z"/>
	<path class="st0" d="M139.5,12c0,0.2,0,0.4,0,0.5h-4.1c0.2,0.8,0.8,1.2,1.5,1.2c0.5,0,1-0.2,1.5-0.6l0.9,1
		c-0.7,0.6-1.5,0.9-2.5,0.9c-1.8,0-3-1.2-3-3s1.2-3.1,2.9-3.1C138.4,9,139.5,10.2,139.5,12z M135.4,11.5h2.6
		c-0.1-0.7-0.6-1.2-1.3-1.2C135.9,10.3,135.5,10.8,135.4,11.5z"/>
	<path class="st0" d="M146.3,11.2v3.7h-1.6v-3.2c0-0.8-0.4-1.3-1.1-1.3c-0.7,0-1.2,0.4-1.2,1.3v3.2h-1.6V9.1h1.5v0.7
		c0.4-0.6,1-0.8,1.7-0.8C145.3,9,146.3,9.9,146.3,11.2z"/>
</g>
</svg>
