<?xml version="1.0" encoding="utf-8"?>
<!-- Generator: $$$/GeneralStr/196=Adobe Illustrator 27.6.0, SVG Export Plug-In . SVG Version: 6.00 Build 0)  -->
<svg version="1.1" id="Ebene_1" xmlns="http://www.w3.org/2000/svg" xmlns:xlink="http://www.w3.org/1999/xlink" x="0px" y="0px"
	 viewBox="0 0 132.1 36.5" style="enable-background:new 0 0 132.1 36.5;" xml:space="preserve">
<style type="text/css">
	.st0{fill:#FFFFFF;}
</style>
<g>
	<path class="st0" d="M6.5,1.4c3.1,0,5,1.1,5,3.7c0,1.3-0.8,2.4-1.9,2.8c1.2,0.4,2.2,1.5,2.2,3c0,2.5-1.8,3.8-5,3.8H1.1V1.4H6.5z
		 M3.7,3.7v3.1h2.7c1.3,0,2.3-0.3,2.3-1.6c0-1.2-1-1.5-2.3-1.5H3.7z M3.7,9.1v3.2l3,0C8.1,12.3,9,12,9,10.7c0-1.2-0.9-1.6-2.4-1.6
		H3.7z"/>
	<path class="st0" d="M22.5,10c0,0.3,0,0.6,0,0.8h-6.5c0.3,1.3,1.2,1.9,2.4,1.9c0.8,0,1.7-0.3,2.3-0.9l1.4,1.6c-1,1-2.4,1.4-3.9,1.4
		c-2.8,0-4.8-1.9-4.8-4.8c0-2.9,1.9-4.8,4.6-4.8C20.7,5.2,22.5,7.2,22.5,10z M16,9.2H20c-0.2-1.2-0.9-1.8-2-1.8
		C16.8,7.3,16.2,8,16,9.2z"/>
	<path class="st0" d="M27.3,2.5c0,0.9-0.7,1.6-1.6,1.6c-0.9,0-1.6-0.7-1.6-1.6c0-0.9,0.7-1.6,1.6-1.6C26.6,0.9,27.3,1.6,27.3,2.5z
		 M27,14.6h-2.5V5.5H27V14.6z"/>
	<path class="st0" d="M42.8,10.7c0,2.9-2,4.1-4.3,4.1c-2.3,0-4.3-1.2-4.3-4.1V5.5h2.5v5c0,1.5,0.8,2.1,1.9,2.1
		c1.1,0,1.9-0.6,1.9-2.1v-5h2.5V10.7z"/>
	<path class="st0" d="M54,8.8v5.8h-2.5v-5c0-1.3-0.7-2.1-1.8-2.1c-1.1,0-1.9,0.7-1.9,2.1v5h-2.5V5.5h2.4v1.1c0.7-1,1.7-1.3,2.7-1.3
		C52.5,5.2,54,6.7,54,8.8z"/>
	<path class="st0" d="M63.1,8c-0.7-0.4-1.9-0.7-2.9-0.7c-0.9,0-1.4,0.3-1.4,0.8c0,0.5,0.7,0.7,1.5,0.8L61,9c2,0.3,3.1,1.2,3.1,2.7
		c0,1.9-1.6,3.1-4.2,3.1c-1.2,0-2.9-0.2-4.1-1.1l1-1.9c0.8,0.5,1.7,0.9,3.1,0.9c1.1,0,1.7-0.3,1.7-0.9c0-0.4-0.5-0.7-1.5-0.8
		L59.4,11c-2.1-0.3-3.2-1.2-3.2-2.8c0-1.9,1.5-3,3.9-3c1.5,0,2.6,0.3,3.8,0.9L63.1,8z"/>
	<path class="st0" d="M72.5,9.3h1.3l3.4-3.6H79L75,9.9l4.1,4.7h-1.8l-3.5-4h-1.3v4h-1.4V1h1.4V9.3z"/>
	<path class="st0" d="M89.2,14.6h-1.4v-1.3c-0.7,0.9-1.8,1.5-3.3,1.5c-2.5,0-4.5-2-4.5-4.7c0-2.7,2-4.7,4.5-4.7
		c1.5,0,2.6,0.6,3.3,1.5V5.7h1.4V14.6z M81.5,10.1c0,1.9,1.3,3.3,3.2,3.3c1.9,0,3.2-1.4,3.2-3.3c0-1.9-1.3-3.3-3.2-3.3
		C82.8,6.8,81.5,8.3,81.5,10.1z"/>
	<path class="st0" d="M100.7,9.1v5.5h-1.4V9.5c0-1.7-0.9-2.7-2.6-2.7c-1.5,0-2.7,1-2.7,2.7v5h-1.4v-9h1.4v1.3c0.7-1.1,1.9-1.5,3-1.5
		C99.1,5.5,100.7,6.9,100.7,9.1z"/>
	<path class="st0" d="M112,9.1v5.5h-1.4V9.5c0-1.7-0.9-2.7-2.6-2.7c-1.5,0-2.7,1-2.7,2.7v5h-1.4v-9h1.4v1.3c0.7-1.1,1.9-1.5,3-1.5
		C110.5,5.5,112,6.9,112,9.1z"/>
	<path class="st0" d="M121.2,7.6c-0.6-0.4-1.7-0.8-2.9-0.8c-1.3,0-2.1,0.5-2.1,1.4c0,0.7,0.7,1.1,1.8,1.3l1.1,0.1c1.9,0.2,3,1,3,2.5
		c0,1.7-1.5,2.8-3.9,2.8c-1.2,0-2.6-0.3-3.7-1.1l0.7-1.1c0.7,0.5,1.6,1,3.1,1c1.5,0,2.5-0.5,2.5-1.4c0-0.7-0.6-1.2-1.9-1.3l-1.1-0.1
		c-2-0.2-3-1.1-3-2.5c0-1.7,1.4-2.7,3.6-2.7c1.4,0,2.7,0.4,3.6,1L121.2,7.6z"/>
	<path class="st0" d="M130.6,6.9h-3.9v4.5c0,1.4,0.7,2,1.8,2c0.7,0,1.4-0.3,1.9-0.6l0.7,1.1c-0.7,0.5-1.6,0.9-2.7,0.9
		c-1.9,0-3.1-1.1-3.1-3.3V6.9h-2V5.7h2V2.8h1.4v2.8h3.9V6.9z"/>
	<path class="st0" d="M27.2,27.8v-6h1.4v13.6h-1.4v-1.3c-0.7,0.9-1.8,1.5-3.3,1.5c-2.5,0-4.5-2-4.5-4.7c0-2.7,2-4.7,4.5-4.7
		C25.4,26.3,26.5,26.9,27.2,27.8z M20.9,31c0,1.9,1.3,3.3,3.2,3.3c1.9,0,3.2-1.4,3.2-3.3c0-1.9-1.3-3.3-3.2-3.3
		C22.2,27.6,20.9,29.1,20.9,31z"/>
	<path class="st0" d="M39.9,31.7c0,2.7-1.9,3.9-4.1,3.9c-2.2,0-4.1-1.3-4.1-3.9v-5.2h1.4v5.1c0,1.9,1.1,2.7,2.7,2.7
		c1.5,0,2.6-0.9,2.6-2.7v-5.1h1.4V31.7z"/>
	<path class="st0" d="M49.9,35.4h-2.5V21.8h2.5V35.4z"/>
	<path class="st0" d="M61.5,35.4h-2.4v-1c-0.6,0.7-1.5,1.2-2.7,1.2c-2.5,0-4.4-2.1-4.4-4.8s1.9-4.8,4.4-4.8c1.3,0,2.1,0.5,2.7,1.3
		v-1h2.4V35.4z M54.5,30.9c0,1.4,0.9,2.5,2.4,2.5c1.4,0,2.4-1.1,2.4-2.5c0-1.4-1-2.5-2.4-2.5C55.4,28.3,54.5,29.5,54.5,30.9z"/>
	<path class="st0" d="M72.8,29.6v5.8h-2.5v-5c0-1.3-0.7-2.1-1.8-2.1c-1.1,0-1.9,0.7-1.9,2.1v5h-2.5v-9.2h2.4v1.1
		c0.7-1,1.7-1.3,2.7-1.3C71.3,26,72.8,27.5,72.8,29.6z"/>
	<path class="st0" d="M81.8,27.2v-5.4h2.5v13.6h-2.4v-1c-0.6,0.7-1.5,1.2-2.7,1.2c-2.5,0-4.4-2.1-4.4-4.8s1.9-4.8,4.4-4.8
		C80.4,26,81.2,26.5,81.8,27.2z M77.2,30.9c0,1.4,0.9,2.5,2.4,2.5c1.4,0,2.4-1.1,2.4-2.5c0-1.4-1-2.5-2.4-2.5
		C78.2,28.3,77.2,29.5,77.2,30.9z"/>
	<path class="st0" d="M95.4,30.8c0,0.3,0,0.6,0,0.8h-6.5c0.3,1.3,1.2,1.9,2.4,1.9c0.8,0,1.7-0.3,2.3-0.9l1.4,1.6
		c-1,1-2.4,1.4-3.9,1.4c-2.8,0-4.8-1.9-4.8-4.8c0-2.9,1.9-4.8,4.6-4.8C93.6,26,95.4,28,95.4,30.8z M88.9,30h4.1
		c-0.2-1.2-0.9-1.8-2-1.8C89.8,28.2,89.1,28.9,88.9,30z"/>
	<path class="st0" d="M106.1,29.6v5.8h-2.5v-5c0-1.3-0.7-2.1-1.8-2.1c-1.1,0-1.9,0.7-1.9,2.1v5h-2.5v-9.2h2.4v1.1
		c0.7-1,1.7-1.3,2.7-1.3C104.6,26,106.1,27.5,106.1,29.6z"/>
	<path class="st0" d="M111.7,33.9c0,1-0.8,1.8-1.8,1.8c-1,0-1.8-0.8-1.8-1.8s0.8-1.8,1.8-1.8C110.9,32.1,111.7,32.9,111.7,33.9z
		 M111,30.9h-2.3l-0.3-8.7h2.9L111,30.9z"/>
</g>
</svg>
