<?xml version="1.0" encoding="utf-8"?>
<!-- Generator: $$$/GeneralStr/196=Adobe Illustrator 27.6.0, SVG Export Plug-In . SVG Version: 6.00 Build 0)  -->
<svg version="1.1" id="Ebene_1" xmlns="http://www.w3.org/2000/svg" xmlns:xlink="http://www.w3.org/1999/xlink" x="0px" y="0px"
	 viewBox="0 0 200 40" style="enable-background:new 0 0 200 40;" xml:space="preserve">
<style type="text/css">
	.st0{fill:#F9892D;}
	.st1{fill:#FFFFFF;}
</style>
<path class="st0" d="M190.8,37.1L9.2,36.9c-3.3,0-6-2.7-6-6v-22c0-3.3,2.7-6,6-6l181.6,0.2c3.3,0,6,2.7,6,6v22
	C196.8,34.4,194.1,37.1,190.8,37.1z"/>
<g>
	<path class="st1" d="M14.3,7.5c2.6,0,4.4,1.7,4.4,4.2s-1.7,4.2-4.4,4.2h-3.3V7.5H14.3z M12.3,8.7v5.8h2c2,0,2.9-1.2,2.9-2.9
		c0-1.7-1-2.9-2.9-2.9H12.3z"/>
	<path class="st1" d="M21.8,8.1c0,0.5-0.4,0.9-0.9,0.9C20.4,9,20,8.6,20,8.1c0-0.5,0.4-0.9,0.9-0.9C21.4,7.2,21.8,7.6,21.8,8.1z
		 M21.5,15.9h-1.3v-5.7h1.3V15.9z"/>
	<path class="st1" d="M28.7,13c0,0.2,0,0.3,0,0.5h-4.2c0.2,1,0.9,1.5,1.7,1.5c0.6,0,1.2-0.2,1.7-0.6l0.6,0.9
		C27.7,15.8,26.9,16,26,16c-1.7,0-2.9-1.2-2.9-3c0-1.8,1.2-3,2.9-3C27.6,10,28.7,11.2,28.7,13z M24.4,12.5h3
		c-0.1-0.9-0.7-1.4-1.5-1.4C25,11.1,24.5,11.7,24.4,12.5z"/>
	<path class="st1" d="M40.8,8.7l-1,1c-0.5-0.6-1.3-1-2.3-1c-1.7,0-3,1.2-3,3.1s1.3,3.1,2.9,3.1c1.5,0,2.4-0.8,2.6-2.2h-2.2v-1.3h3.7
		c0,0.1,0,0.2,0,0.3c0,2.4-1.5,4.4-4.1,4.4c-2.2,0-4.3-1.5-4.3-4.3c0-2.5,1.8-4.4,4.4-4.4C38.9,7.3,40.1,7.8,40.8,8.7z"/>
	<path class="st1" d="M48.8,15.9h-1.3v-0.7c-0.4,0.5-1,0.8-1.8,0.8c-1.6,0-2.9-1.3-2.9-3c0-1.8,1.3-3,2.9-3c0.8,0,1.4,0.3,1.8,0.8
		v-0.7h1.3V15.9z M44.2,13c0,1,0.7,1.8,1.7,1.8c1,0,1.7-0.8,1.7-1.8c0-1-0.7-1.8-1.7-1.8C44.8,11.1,44.2,12,44.2,13z"/>
	<path class="st1" d="M54.7,11.6c-0.3-0.2-1.1-0.5-1.8-0.5c-0.7,0-1.1,0.3-1.1,0.7c0,0.4,0.4,0.5,0.9,0.6l0.6,0.1
		c1.3,0.2,2,0.7,2,1.7c0,1.1-1,1.9-2.6,1.9c-0.6,0-1.6-0.1-2.5-0.7l0.6-0.9c0.4,0.3,1,0.6,1.9,0.6c0.9,0,1.3-0.3,1.3-0.7
		c0-0.3-0.3-0.5-1-0.6l-0.6-0.1c-1.3-0.2-1.9-0.8-1.9-1.7c0-1.1,0.9-1.8,2.4-1.8c0.9,0,1.7,0.2,2.3,0.6L54.7,11.6z"/>
	<path class="st1" d="M60.8,11.3h-2.2v2.5c0,0.8,0.4,1.1,0.9,1.1c0.4,0,0.8-0.2,1.2-0.4l0.5,1c-0.5,0.3-1,0.6-1.8,0.6
		c-1.3,0-2.1-0.7-2.1-2.2v-2.5h-1.1v-1.1h1.1V8.4h1.3v1.7h2.2V11.3z"/>
	<path class="st1" d="M66.2,10.1l-0.3,1.2c-0.3-0.1-0.6-0.2-1-0.2c-0.8,0-1.4,0.6-1.4,1.5v3.2h-1.3v-5.7h1.2v0.6
		c0.4-0.5,1-0.8,1.7-0.8C65.6,10,65.9,10,66.2,10.1z"/>
	<path class="st1" d="M73,13c0,1.7-1.3,3-3.1,3c-1.8,0-3.1-1.3-3.1-3c0-1.7,1.3-3,3.1-3C71.7,10,73,11.3,73,13z M68.1,13
		c0,1.1,0.8,1.8,1.8,1.8c1,0,1.8-0.8,1.8-1.8s-0.8-1.8-1.8-1.8C68.9,11.1,68.1,11.9,68.1,13z"/>
	<path class="st1" d="M79.9,12.3v3.6h-1.3v-3.2c0-1-0.5-1.5-1.3-1.5c-0.8,0-1.5,0.5-1.5,1.5v3.2h-1.3v-5.7h1.2v0.7
		c0.5-0.7,1.2-0.9,1.8-0.9C78.9,10,79.9,10.9,79.9,12.3z"/>
	<path class="st1" d="M87.6,13c0,1.7-1.3,3-3.1,3c-1.8,0-3.1-1.3-3.1-3c0-1.7,1.3-3,3.1-3C86.3,10,87.6,11.3,87.6,13z M82.7,13
		c0,1.1,0.8,1.8,1.8,1.8c1,0,1.8-0.8,1.8-1.8s-0.8-1.8-1.8-1.8C83.5,11.1,82.7,11.9,82.7,13z"/>
	<path class="st1" d="M98.6,12.3v3.6h-1.3v-3.2c0-1-0.5-1.5-1.3-1.5c-0.8,0-1.5,0.5-1.5,1.5v3.2h-1.3v-3.2c0-1-0.5-1.5-1.3-1.5
		c-0.8,0-1.5,0.5-1.5,1.5v3.2h-1.3v-5.7h1.2v0.7c0.5-0.7,1.2-0.9,1.8-0.9c0.9,0,1.6,0.4,2,1c0.5-0.8,1.4-1,2.1-1
		C97.6,10,98.6,10.9,98.6,12.3z"/>
	<path class="st1" d="M102,8.1c0,0.5-0.4,0.9-0.9,0.9s-0.9-0.4-0.9-0.9c0-0.5,0.4-0.9,0.9-0.9S102,7.6,102,8.1z M101.7,15.9h-1.3
		v-5.7h1.3V15.9z"/>
	<path class="st1" d="M108.9,13c0,0.2,0,0.3,0,0.5h-4.2c0.2,1,0.9,1.5,1.7,1.5c0.6,0,1.2-0.2,1.7-0.6l0.6,0.9
		c-0.7,0.6-1.5,0.8-2.4,0.8c-1.7,0-2.9-1.2-2.9-3c0-1.8,1.2-3,2.9-3C107.8,10,108.9,11.2,108.9,13z M104.6,12.5h3
		c-0.1-0.9-0.7-1.4-1.5-1.4C105.2,11.1,104.7,11.7,104.6,12.5z"/>
	<path class="st1" d="M119.2,15.9h-1.3v-0.7c-0.4,0.5-1,0.8-1.8,0.8c-1.6,0-2.9-1.3-2.9-3c0-1.8,1.3-3,2.9-3c0.8,0,1.4,0.3,1.8,0.8
		v-0.7h1.3V15.9z M114.5,13c0,1,0.7,1.8,1.7,1.8c1,0,1.7-0.8,1.7-1.8c0-1-0.7-1.8-1.7-1.8C115.2,11.1,114.5,12,114.5,13z"/>
	<path class="st1" d="M130.6,12.3v3.6h-1.3v-3.2c0-1-0.5-1.5-1.3-1.5c-0.8,0-1.5,0.5-1.5,1.5v3.2h-1.3v-3.2c0-1-0.5-1.5-1.3-1.5
		c-0.8,0-1.5,0.5-1.5,1.5v3.2h-1.3v-5.7h1.2v0.7c0.5-0.7,1.2-0.9,1.8-0.9c0.9,0,1.6,0.4,2,1c0.5-0.8,1.4-1,2.1-1
		C129.6,10,130.6,10.9,130.6,12.3z"/>
	<path class="st1" d="M137.2,11h4.5V7.5h1.4v8.4h-1.4v-3.6h-4.5v3.6h-1.4V7.5h1.4V11z"/>
	<path class="st1" d="M150.8,15.9h-1.3v-0.7c-0.4,0.5-1,0.8-1.8,0.8c-1.6,0-2.9-1.3-2.9-3c0-1.8,1.3-3,2.9-3c0.8,0,1.4,0.3,1.8,0.8
		v-0.7h1.3V15.9z M146.1,13c0,1,0.7,1.8,1.7,1.8c1,0,1.7-0.8,1.7-1.8c0-1-0.7-1.8-1.7-1.8C146.8,11.1,146.1,12,146.1,13z"/>
	<path class="st1" d="M162.2,12.3v3.6h-1.3v-3.2c0-1-0.5-1.5-1.3-1.5c-0.8,0-1.5,0.5-1.5,1.5v3.2h-1.3v-3.2c0-1-0.5-1.5-1.3-1.5
		c-0.8,0-1.5,0.5-1.5,1.5v3.2h-1.3v-5.7h1.2v0.7c0.5-0.7,1.2-0.9,1.8-0.9c0.9,0,1.6,0.4,2,1c0.5-0.8,1.4-1,2.1-1
		C161.2,10,162.2,10.9,162.2,12.3z"/>
	<path class="st1" d="M170,13c0,1.8-1.3,3-2.9,3c-0.8,0-1.4-0.3-1.8-0.8v0.7h-1.3V7.2h1.3v3.6c0.4-0.5,1-0.8,1.8-0.8
		C168.7,10,170,11.2,170,13z M165.3,13c0,1,0.7,1.8,1.7,1.8c1.1,0,1.7-0.8,1.7-1.8c0-1-0.7-1.8-1.7-1.8
		C165.9,11.1,165.3,11.9,165.3,13z"/>
	<path class="st1" d="M176.8,13.4c0,1.8-1.3,2.6-2.7,2.6c-1.3,0-2.7-0.8-2.7-2.6v-3.3h1.3v3.2c0,1.1,0.6,1.5,1.4,1.5
		c0.8,0,1.4-0.4,1.4-1.5v-3.2h1.3V13.4z"/>
	<path class="st1" d="M182.6,10.1l-0.3,1.2c-0.3-0.1-0.6-0.2-1-0.2c-0.8,0-1.4,0.6-1.4,1.5v3.2h-1.3v-5.7h1.2v0.6
		c0.4-0.5,1-0.8,1.7-0.8C182,10,182.3,10,182.6,10.1z"/>
	<path class="st1" d="M187.8,10.8v-0.7h1.3v5.3c0,1.8-1.2,2.9-3.1,2.9c-0.9,0-1.8-0.2-2.4-0.7l0.5-1.1c0.6,0.4,1.2,0.6,1.9,0.6
		c1.2,0,1.8-0.6,1.8-1.7v-0.5c-0.4,0.6-1.1,0.8-1.9,0.8c-1.3,0-2.7-1.1-2.7-3c0-1.9,1.3-3,2.7-3C186.7,10,187.4,10.3,187.8,10.8z
		 M184.5,12.9c0,1,0.6,1.8,1.7,1.8c1,0,1.7-0.8,1.7-1.8c0-1-0.7-1.8-1.7-1.8C185.2,11.1,184.5,12,184.5,12.9z"/>
	<path class="st1" d="M30.4,30.3h-1.5l-0.8-2.1h-3.8l-0.8,2.1H22l3.3-8.4H27L30.4,30.3z M24.8,26.8h2.8l-1.4-3.6L24.8,26.8z"/>
	<path class="st1" d="M33,22.5c0,0.5-0.4,0.9-0.9,0.9c-0.5,0-0.9-0.4-0.9-0.9c0-0.5,0.4-0.9,0.9-0.9C32.7,21.6,33,22,33,22.5z
		 M32.8,30.3h-1.3v-5.7h1.3V30.3z"/>
	<path class="st1" d="M38.6,24.5l-0.3,1.2c-0.3-0.1-0.6-0.2-1-0.2c-0.8,0-1.4,0.6-1.4,1.5v3.2h-1.3v-5.7H36v0.6
		c0.4-0.5,1-0.8,1.7-0.8C38.1,24.4,38.3,24.4,38.6,24.5z"/>
	<path class="st1" d="M45.8,27.4c0,1.8-1.3,3-2.9,3c-0.8,0-1.4-0.3-1.8-0.8v3.1h-1.3v-8.1h1.3v0.7c0.4-0.5,1-0.8,1.8-0.8
		C44.6,24.4,45.8,25.6,45.8,27.4z M41.1,27.4c0,1,0.7,1.8,1.7,1.8c1.1,0,1.7-0.8,1.7-1.8s-0.7-1.8-1.7-1.8
		C41.8,25.5,41.1,26.3,41.1,27.4z"/>
	<path class="st1" d="M53.2,27.4c0,1.7-1.3,3-3.1,3c-1.8,0-3.1-1.3-3.1-3s1.3-3,3.1-3C51.8,24.4,53.2,25.7,53.2,27.4z M48.3,27.4
		c0,1.1,0.8,1.8,1.8,1.8c1,0,1.8-0.8,1.8-1.8c0-1.1-0.8-1.8-1.8-1.8C49,25.5,48.3,26.3,48.3,27.4z"/>
	<path class="st1" d="M58.6,24.5l-0.3,1.2c-0.3-0.1-0.6-0.2-1-0.2c-0.8,0-1.4,0.6-1.4,1.5v3.2h-1.3v-5.7H56v0.6
		c0.4-0.5,1-0.8,1.7-0.8C58,24.4,58.3,24.4,58.6,24.5z"/>
	<path class="st1" d="M63.9,25.7h-2.2v2.5c0,0.8,0.4,1.1,0.9,1.1c0.4,0,0.8-0.2,1.2-0.4l0.5,1c-0.5,0.3-1,0.6-1.8,0.6
		c-1.3,0-2.1-0.7-2.1-2.2v-2.5h-1.1v-1.1h1.1v-1.7h1.3v1.7h2.2V25.7z"/>
	<path class="st1" d="M72.6,26c-0.3-0.2-1.1-0.5-1.8-0.5c-0.7,0-1.1,0.3-1.1,0.7c0,0.4,0.4,0.5,0.9,0.6l0.6,0.1c1.3,0.2,2,0.7,2,1.7
		c0,1.1-1,1.9-2.6,1.9c-0.6,0-1.6-0.1-2.5-0.7l0.6-0.9c0.4,0.3,1,0.6,1.9,0.6c0.9,0,1.3-0.3,1.3-0.7c0-0.3-0.3-0.5-1-0.6l-0.6-0.1
		c-1.3-0.2-1.9-0.8-1.9-1.7c0-1.1,0.9-1.8,2.4-1.8c0.9,0,1.7,0.2,2.3,0.6L72.6,26z"/>
	<path class="st1" d="M80,27.8c0,1.8-1.3,2.6-2.7,2.6c-1.3,0-2.7-0.8-2.7-2.6v-3.3h1.3v3.2c0,1.1,0.6,1.5,1.4,1.5s1.4-0.4,1.4-1.5
		v-3.2H80V27.8z"/>
	<path class="st1" d="M86.7,25.3l-0.8,0.9c-0.4-0.4-0.8-0.6-1.4-0.6c-1,0-1.7,0.8-1.7,1.8c0,1.1,0.7,1.8,1.7,1.8
		c0.6,0,1-0.3,1.4-0.6l0.8,0.9c-0.5,0.6-1.3,0.9-2.1,0.9c-1.8,0-3-1.3-3-3s1.2-3,3-3C85.4,24.4,86.2,24.7,86.7,25.3z"/>
	<path class="st1" d="M89.3,25.2c0.5-0.7,1.2-0.8,1.8-0.8c1.4,0,2.3,0.9,2.3,2.3v3.6h-1.3v-3.2c0-1-0.5-1.5-1.3-1.5
		c-0.8,0-1.5,0.5-1.5,1.5v3.2h-1.3v-8.6h1.3V25.2z"/>
	<path class="st1" d="M99.2,25.7H97v2.5c0,0.8,0.4,1.1,0.9,1.1c0.4,0,0.8-0.2,1.2-0.4l0.5,1c-0.5,0.3-1,0.6-1.8,0.6
		c-1.3,0-2.1-0.7-2.1-2.2v-2.5h-1.1v-1.1h1.1v-1.7H97v1.7h2.2V25.7z"/>
	<path class="st1" d="M107.9,30.3h-1.7l-3.2-8.4h1.4l2.6,7l2.6-7h1.4L107.9,30.3z"/>
	<path class="st1" d="M116.7,27.4c0,0.2,0,0.3,0,0.5h-4.2c0.2,1,0.9,1.5,1.7,1.5c0.6,0,1.2-0.2,1.7-0.6l0.6,0.9
		c-0.7,0.6-1.5,0.8-2.4,0.8c-1.7,0-2.9-1.2-2.9-3c0-1.8,1.2-3,2.9-3C115.6,24.4,116.7,25.6,116.7,27.4z M112.5,26.9h3
		c-0.1-0.9-0.7-1.4-1.5-1.4C113.1,25.5,112.6,26.1,112.5,26.9z"/>
	<path class="st1" d="M122.2,24.5l-0.3,1.2c-0.3-0.1-0.6-0.2-1-0.2c-0.8,0-1.4,0.6-1.4,1.5v3.2h-1.3v-5.7h1.2v0.6
		c0.4-0.5,1-0.8,1.7-0.8C121.6,24.4,121.9,24.4,122.2,24.5z"/>
	<path class="st1" d="M127.2,26c-0.3-0.2-1.1-0.5-1.8-0.5c-0.7,0-1.1,0.3-1.1,0.7c0,0.4,0.4,0.5,0.9,0.6l0.6,0.1
		c1.3,0.2,2,0.7,2,1.7c0,1.1-1,1.9-2.6,1.9c-0.6,0-1.6-0.1-2.5-0.7l0.6-0.9c0.4,0.3,1,0.6,1.9,0.6c0.9,0,1.3-0.3,1.3-0.7
		c0-0.3-0.3-0.5-1-0.6l-0.6-0.1c-1.3-0.2-1.9-0.8-1.9-1.7c0-1.1,0.9-1.8,2.4-1.8c0.9,0,1.7,0.2,2.3,0.6L127.2,26z"/>
	<path class="st1" d="M133.3,25.7h-2.2v2.5c0,0.8,0.4,1.1,0.9,1.1c0.4,0,0.8-0.2,1.2-0.4l0.5,1c-0.5,0.3-1,0.6-1.8,0.6
		c-1.3,0-2.1-0.7-2.1-2.2v-2.5h-1.1v-1.1h1.1v-1.7h1.3v1.7h2.2V25.7z"/>
	<path class="st1" d="M140.3,30.3h-1.3v-0.7c-0.4,0.5-1,0.8-1.8,0.8c-1.6,0-2.9-1.3-2.9-3s1.3-3,2.9-3c0.8,0,1.4,0.3,1.8,0.8v-0.7
		h1.3V30.3z M137.2,22.8c0,0.5-0.4,0.9-0.9,0.9s-0.9-0.4-0.9-0.9s0.4-0.9,0.9-0.9S137.2,22.3,137.2,22.8z M135.7,27.4
		c0,1,0.7,1.8,1.7,1.8c1,0,1.7-0.8,1.7-1.8s-0.7-1.8-1.7-1.8C136.4,25.5,135.7,26.4,135.7,27.4z M139.6,22.8c0,0.5-0.4,0.9-0.9,0.9
		c-0.5,0-0.9-0.4-0.9-0.9s0.4-0.9,0.9-0.9C139.3,21.9,139.6,22.3,139.6,22.8z"/>
	<path class="st1" d="M146.2,24.5l-0.3,1.2c-0.3-0.1-0.6-0.2-1-0.2c-0.8,0-1.4,0.6-1.4,1.5v3.2h-1.3v-5.7h1.2v0.6
		c0.4-0.5,1-0.8,1.7-0.8C145.6,24.4,145.9,24.4,146.2,24.5z"/>
	<path class="st1" d="M148.7,26.7h0.6l1.9-2.2h1.6l-2.4,2.7l2.4,3h-1.6l-1.9-2.4h-0.6v2.4h-1.3v-8.6h1.3V26.7z"/>
	<path class="st1" d="M159.2,27.8c0,1.8-1.3,2.6-2.7,2.6c-1.3,0-2.7-0.8-2.7-2.6v-3.3h1.3v3.2c0,1.1,0.6,1.5,1.4,1.5
		c0.8,0,1.4-0.4,1.4-1.5v-3.2h1.3V27.8z"/>
	<path class="st1" d="M166.5,26.7v3.6h-1.3v-3.2c0-1-0.5-1.5-1.3-1.5c-0.8,0-1.5,0.5-1.5,1.5v3.2h-1.3v-5.7h1.2v0.7
		c0.5-0.7,1.2-0.9,1.8-0.9C165.5,24.4,166.5,25.3,166.5,26.7z"/>
	<path class="st1" d="M172.6,25.2v-0.7h1.3v5.3c0,1.8-1.2,2.9-3.1,2.9c-0.9,0-1.8-0.2-2.4-0.7l0.5-1.1c0.6,0.4,1.2,0.6,1.9,0.6
		c1.2,0,1.8-0.6,1.8-1.7v-0.5c-0.4,0.6-1.1,0.8-1.9,0.8c-1.3,0-2.7-1.1-2.7-3c0-1.9,1.3-3,2.7-3C171.5,24.4,172.1,24.7,172.6,25.2z
		 M169.3,27.3c0,1,0.6,1.8,1.7,1.8c1,0,1.7-0.8,1.7-1.8c0-1-0.7-1.8-1.7-1.8C169.9,25.5,169.3,26.4,169.3,27.3z"/>
	<path class="st1" d="M177.4,29.4c0,0.6-0.5,1.1-1,1.1s-1-0.5-1-1.1s0.5-1,1-1S177.4,28.8,177.4,29.4z"/>
</g>
</svg>
