<?xml version="1.0" encoding="utf-8"?>
<!-- Generator: $$$/GeneralStr/196=Adobe Illustrator 27.6.0, SVG Export Plug-In . SVG Version: 6.00 Build 0)  -->
<svg version="1.1" id="Ebene_1" xmlns="http://www.w3.org/2000/svg" xmlns:xlink="http://www.w3.org/1999/xlink" x="0px" y="0px"
	 viewBox="0 0 200 40" style="enable-background:new 0 0 200 40;" xml:space="preserve">
<style type="text/css">
	.st0{fill:#005CA9;}
	.st1{fill:#FFFFFF;}
</style>
<path class="st0" d="M158.8,37H41.2c-3.3,0-6-2.7-6-6V9c0-3.3,2.7-6,6-6h117.6c3.3,0,6,2.7,6,6v22C164.8,34.3,162.1,37,158.8,37z"/>
<g>
	<path class="st1" d="M48.6,12.9c0,2-1.3,3.1-2.9,3.1c-1.5,0-2.2-0.7-2.7-1.3l0.9-0.9c0.4,0.5,0.9,0.9,1.8,0.9c1,0,1.6-0.6,1.6-1.9
		V7.5h1.4V12.9z"/>
	<path class="st1" d="M56.4,13c0,1.7-1.3,3-3.1,3c-1.8,0-3.1-1.3-3.1-3c0-1.7,1.3-3,3.1-3C55.1,10,56.4,11.3,56.4,13z M51.6,13
		c0,1.1,0.8,1.8,1.8,1.8c1,0,1.8-0.8,1.8-1.8s-0.8-1.8-1.8-1.8C52.3,11.1,51.6,11.9,51.6,13z"/>
	<path class="st1" d="M63.9,13c0,1.8-1.3,3-2.9,3c-0.8,0-1.4-0.3-1.8-0.8v0.7H58V7.2h1.3v3.6c0.4-0.5,1-0.8,1.8-0.8
		C62.7,10,63.9,11.2,63.9,13z M59.2,13c0,1,0.7,1.8,1.7,1.8c1.1,0,1.7-0.8,1.7-1.8c0-1-0.7-1.8-1.7-1.8C59.9,11.1,59.2,11.9,59.2,13
		z"/>
	<path class="st1" d="M69.4,11.6c-0.3-0.2-1.1-0.5-1.8-0.5c-0.7,0-1.1,0.3-1.1,0.7c0,0.4,0.4,0.5,0.9,0.6l0.6,0.1
		c1.3,0.2,2,0.7,2,1.7c0,1.1-1,1.9-2.6,1.9c-0.6,0-1.6-0.1-2.5-0.7l0.6-0.9c0.4,0.3,1,0.6,1.9,0.6c0.9,0,1.3-0.3,1.3-0.7
		c0-0.3-0.3-0.5-1-0.6l-0.6-0.1c-1.3-0.2-1.9-0.8-1.9-1.7c0-1.1,0.9-1.8,2.4-1.8c0.9,0,1.7,0.2,2.3,0.6L69.4,11.6z"/>
	<path class="st1" d="M80.7,13c0,1.8-1.3,3-2.9,3c-0.8,0-1.4-0.3-1.8-0.8v0.7h-1.3V7.2H76v3.6c0.4-0.5,1-0.8,1.8-0.8
		C79.4,10,80.7,11.2,80.7,13z M76,13c0,1,0.7,1.8,1.7,1.8c1.1,0,1.7-0.8,1.7-1.8c0-1-0.7-1.8-1.7-1.8C76.7,11.1,76,11.9,76,13z"/>
	<path class="st1" d="M87.4,13c0,0.2,0,0.3,0,0.5h-4.2c0.2,1,0.9,1.5,1.7,1.5c0.6,0,1.2-0.2,1.7-0.6l0.6,0.9
		c-0.7,0.6-1.5,0.8-2.4,0.8c-1.7,0-2.9-1.2-2.9-3c0-1.8,1.2-3,2.9-3C86.3,10,87.4,11.2,87.4,13z M83.2,12.5h3
		c-0.1-0.9-0.7-1.4-1.5-1.4C83.8,11.1,83.3,11.7,83.2,12.5z"/>
	<path class="st1" d="M90.5,8.1c0,0.5-0.4,0.9-0.9,0.9c-0.5,0-0.9-0.4-0.9-0.9c0-0.5,0.4-0.9,0.9-0.9C90.1,7.2,90.5,7.6,90.5,8.1z
		 M90.3,15.9H89v-5.7h1.3V15.9z"/>
	<path class="st1" d="M101.3,12.3H97v3.6h-1.4V7.5h6v1.3H97V11h4.4V12.3z"/>
	<path class="st1" d="M104.7,8.1c0,0.5-0.4,0.9-0.9,0.9c-0.5,0-0.9-0.4-0.9-0.9c0-0.5,0.4-0.9,0.9-0.9
		C104.3,7.2,104.7,7.6,104.7,8.1z M104.4,15.9h-1.3v-5.7h1.3V15.9z"/>
	<path class="st1" d="M110.3,10.1l-0.3,1.2c-0.3-0.1-0.6-0.2-1-0.2c-0.8,0-1.4,0.6-1.4,1.5v3.2h-1.3v-5.7h1.2v0.6
		c0.4-0.5,1-0.8,1.7-0.8C109.7,10,110,10,110.3,10.1z"/>
	<path class="st1" d="M121,12.3v3.6h-1.3v-3.2c0-1-0.5-1.5-1.3-1.5c-0.8,0-1.5,0.5-1.5,1.5v3.2h-1.3v-3.2c0-1-0.5-1.5-1.3-1.5
		c-0.8,0-1.5,0.5-1.5,1.5v3.2h-1.3v-5.7h1.2v0.7c0.5-0.7,1.2-0.9,1.8-0.9c0.9,0,1.6,0.4,2,1c0.5-0.8,1.4-1,2.1-1
		C120,10,121,10.9,121,12.3z"/>
	<path class="st1" d="M128,13c0,0.2,0,0.3,0,0.5h-4.2c0.2,1,0.9,1.5,1.7,1.5c0.6,0,1.2-0.2,1.7-0.6l0.6,0.9
		c-0.7,0.6-1.5,0.8-2.4,0.8c-1.7,0-2.9-1.2-2.9-3c0-1.8,1.2-3,2.9-3C126.9,10,128,11.2,128,13z M123.8,12.5h3
		c-0.1-0.9-0.7-1.4-1.5-1.4C124.4,11.1,123.9,11.7,123.8,12.5z"/>
	<path class="st1" d="M134.9,12.3v3.6h-1.3v-3.2c0-1-0.5-1.5-1.3-1.5c-0.8,0-1.5,0.5-1.5,1.5v3.2h-1.3v-5.7h1.2v0.7
		c0.5-0.7,1.2-0.9,1.8-0.9C134,10,134.9,10.9,134.9,12.3z"/>
	<path class="st1" d="M145.6,15.9h-1.3v-0.7c-0.4,0.5-1,0.8-1.8,0.8c-1.6,0-2.9-1.3-2.9-3c0-1.8,1.3-3,2.9-3c0.8,0,1.4,0.3,1.8,0.8
		v-0.7h1.3V15.9z M141,13c0,1,0.7,1.8,1.7,1.8c1,0,1.7-0.8,1.7-1.8s-0.7-1.8-1.7-1.8C141.6,11.1,141,12,141,13z"/>
	<path class="st1" d="M157,12.3v3.6h-1.3v-3.2c0-1-0.5-1.5-1.3-1.5c-0.8,0-1.5,0.5-1.5,1.5v3.2h-1.3v-3.2c0-1-0.5-1.5-1.3-1.5
		c-0.8,0-1.5,0.5-1.5,1.5v3.2h-1.3v-5.7h1.2v0.7c0.5-0.7,1.2-0.9,1.8-0.9c0.9,0,1.6,0.4,2,1c0.5-0.8,1.4-1,2.1-1
		C156,10,157,10.9,157,12.3z"/>
	<path class="st1" d="M50.6,25.4h4.5v-3.5h1.4v8.4h-1.4v-3.6h-4.5v3.6h-1.4v-8.4h1.4V25.4z"/>
	<path class="st1" d="M64.2,30.3h-1.3v-0.7c-0.4,0.5-1,0.8-1.8,0.8c-1.6,0-2.9-1.3-2.9-3s1.3-3,2.9-3c0.8,0,1.4,0.3,1.8,0.8v-0.7
		h1.3V30.3z M59.5,27.4c0,1,0.7,1.8,1.7,1.8c1,0,1.7-0.8,1.7-1.8c0-1-0.7-1.8-1.7-1.8C60.2,25.5,59.5,26.4,59.5,27.4z"/>
	<path class="st1" d="M75.6,26.7v3.6h-1.3v-3.2c0-1-0.5-1.5-1.3-1.5c-0.8,0-1.5,0.5-1.5,1.5v3.2h-1.3v-3.2c0-1-0.5-1.5-1.3-1.5
		c-0.8,0-1.5,0.5-1.5,1.5v3.2h-1.3v-5.7h1.2v0.7c0.5-0.7,1.2-0.9,1.8-0.9c0.9,0,1.6,0.4,2,1c0.5-0.8,1.4-1,2.1-1
		C74.6,24.4,75.6,25.3,75.6,26.7z"/>
	<path class="st1" d="M83.4,27.4c0,1.8-1.3,3-2.9,3c-0.8,0-1.4-0.3-1.8-0.8v0.7h-1.3v-8.6h1.3v3.6c0.4-0.5,1-0.8,1.8-0.8
		C82.1,24.4,83.4,25.6,83.4,27.4z M78.7,27.4c0,1,0.7,1.8,1.7,1.8c1.1,0,1.7-0.8,1.7-1.8s-0.7-1.8-1.7-1.8
		C79.3,25.5,78.7,26.3,78.7,27.4z"/>
	<path class="st1" d="M90.2,27.8c0,1.8-1.3,2.6-2.7,2.6c-1.3,0-2.7-0.8-2.7-2.6v-3.3h1.3v3.2c0,1.1,0.6,1.5,1.4,1.5s1.4-0.4,1.4-1.5
		v-3.2h1.3V27.8z"/>
	<path class="st1" d="M96,24.5l-0.3,1.2c-0.3-0.1-0.6-0.2-1-0.2c-0.8,0-1.4,0.6-1.4,1.5v3.2h-1.3v-5.7h1.2v0.6
		c0.4-0.5,1-0.8,1.7-0.8C95.4,24.4,95.7,24.4,96,24.5z"/>
	<path class="st1" d="M101.2,25.2v-0.7h1.3v5.3c0,1.8-1.2,2.9-3.1,2.9c-0.9,0-1.8-0.2-2.4-0.7l0.5-1.1c0.6,0.4,1.2,0.6,1.9,0.6
		c1.2,0,1.8-0.6,1.8-1.7v-0.5c-0.4,0.6-1.1,0.8-1.9,0.8c-1.3,0-2.7-1.1-2.7-3c0-1.9,1.3-3,2.7-3C100.1,24.4,100.8,24.7,101.2,25.2z
		 M97.9,27.3c0,1,0.6,1.8,1.7,1.8c1,0,1.7-0.8,1.7-1.8c0-1-0.7-1.8-1.7-1.8C98.6,25.5,97.9,26.4,97.9,27.3z"/>
	<path class="st1" d="M115,30.3h-1.5l-0.8-2.1h-3.8l-0.8,2.1h-1.4l3.3-8.4h1.7L115,30.3z M109.4,26.8h2.8l-1.4-3.6L109.4,26.8z"/>
	<path class="st1" d="M117.7,22.5c0,0.5-0.4,0.9-0.9,0.9c-0.5,0-0.9-0.4-0.9-0.9s0.4-0.9,0.9-0.9C117.3,21.6,117.7,22,117.7,22.5z
		 M117.5,30.3h-1.3v-5.7h1.3V30.3z"/>
	<path class="st1" d="M123.3,24.5l-0.3,1.2c-0.3-0.1-0.6-0.2-1-0.2c-0.8,0-1.4,0.6-1.4,1.5v3.2h-1.3v-5.7h1.2v0.6
		c0.4-0.5,1-0.8,1.7-0.8C122.7,24.4,123,24.4,123.3,24.5z"/>
	<path class="st1" d="M130.5,27.4c0,1.8-1.3,3-2.9,3c-0.8,0-1.4-0.3-1.8-0.8v3.1h-1.3v-8.1h1.3v0.7c0.4-0.5,1-0.8,1.8-0.8
		C129.2,24.4,130.5,25.6,130.5,27.4z M125.7,27.4c0,1,0.7,1.8,1.7,1.8c1.1,0,1.7-0.8,1.7-1.8s-0.7-1.8-1.7-1.8
		C126.4,25.5,125.7,26.3,125.7,27.4z"/>
	<path class="st1" d="M137.8,27.4c0,1.7-1.3,3-3.1,3c-1.8,0-3.1-1.3-3.1-3s1.3-3,3.1-3C136.5,24.4,137.8,25.7,137.8,27.4z
		 M132.9,27.4c0,1.1,0.8,1.8,1.8,1.8s1.8-0.8,1.8-1.8c0-1.1-0.8-1.8-1.8-1.8S132.9,26.3,132.9,27.4z"/>
	<path class="st1" d="M143.3,24.5l-0.3,1.2c-0.3-0.1-0.6-0.2-1-0.2c-0.8,0-1.4,0.6-1.4,1.5v3.2h-1.3v-5.7h1.2v0.6
		c0.4-0.5,1-0.8,1.7-0.8C142.7,24.4,143,24.4,143.3,24.5z"/>
	<path class="st1" d="M148.6,25.7h-2.2v2.5c0,0.8,0.4,1.1,0.9,1.1c0.4,0,0.8-0.2,1.2-0.4l0.5,1c-0.5,0.3-1,0.6-1.8,0.6
		c-1.3,0-2.1-0.7-2.1-2.2v-2.5H144v-1.1h1.1v-1.7h1.3v1.7h2.2V25.7z"/>
	<path class="st1" d="M152.1,29.4c0,0.6-0.5,1.1-1,1.1s-1-0.5-1-1.1s0.5-1,1-1S152.1,28.8,152.1,29.4z"/>
</g>
</svg>
