<?xml version="1.0" encoding="utf-8"?>
<!-- Generator: $$$/GeneralStr/196=Adobe Illustrator 27.6.0, SVG Export Plug-In . SVG Version: 6.00 Build 0)  -->
<svg version="1.1" id="Ebene_1" xmlns="http://www.w3.org/2000/svg" xmlns:xlink="http://www.w3.org/1999/xlink" x="0px" y="0px"
	 viewBox="0 0 200 40" style="enable-background:new 0 0 200 40;" xml:space="preserve">
<style type="text/css">
	.st0{fill:#EA0F7D;}
	.st1{fill:#FFFFFF;}
</style>
<path class="st0" d="M182.8,37.1L16.1,36.9c-3.3,0-6-2.7-6-6v-22c0-3.3,2.7-6,6-6l166.6,0.2c3.3,0,6,2.7,6,6v22
	C188.8,34.4,186.1,37.1,182.8,37.1z"/>
<g>
	<path class="st1" d="M34.4,8c2.6,0,4.4,1.7,4.4,4.2s-1.7,4.2-4.4,4.2H31V8H34.4z M32.4,9.2v5.8h2c2,0,2.9-1.2,2.9-2.9
		c0-1.7-1-2.9-2.9-2.9H32.4z"/>
	<path class="st1" d="M41.9,8.6c0,0.5-0.4,0.9-0.9,0.9c-0.5,0-0.9-0.4-0.9-0.9c0-0.5,0.4-0.9,0.9-0.9C41.5,7.7,41.9,8.1,41.9,8.6z
		 M41.6,16.4h-1.3v-5.7h1.3V16.4z"/>
	<path class="st1" d="M48.8,13.5c0,0.2,0,0.3,0,0.5h-4.2c0.2,1,0.9,1.5,1.7,1.5c0.6,0,1.2-0.2,1.7-0.6l0.6,0.9
		c-0.7,0.6-1.5,0.8-2.4,0.8c-1.7,0-2.9-1.2-2.9-3c0-1.8,1.2-3,2.9-3C47.7,10.5,48.8,11.7,48.8,13.5z M44.5,13h3
		c-0.1-0.9-0.7-1.4-1.5-1.4C45.1,11.6,44.6,12.2,44.5,13z"/>
	<path class="st1" d="M59.2,9.8c-0.7-0.5-1.5-0.7-2.4-0.7c-1.1,0-1.9,0.5-1.9,1.3c0,0.7,0.7,1,1.7,1.1l0.6,0.1
		c1.4,0.2,2.7,0.7,2.7,2.3c0,1.7-1.5,2.6-3.4,2.6c-1.1,0-2.5-0.4-3.4-1.1l0.7-1.1c0.6,0.5,1.7,0.9,2.6,0.9c1.1,0,2-0.5,2-1.2
		c0-0.7-0.7-1-1.9-1.1l-0.7-0.1c-1.2-0.2-2.5-0.8-2.5-2.3c0-1.7,1.5-2.6,3.3-2.6c1.2,0,2.2,0.3,3,0.9L59.2,9.8z"/>
	<path class="st1" d="M62.9,11.3c0.5-0.7,1.2-0.8,1.8-0.8c1.4,0,2.3,0.9,2.3,2.3v3.6h-1.3v-3.2c0-1-0.5-1.5-1.3-1.5
		c-0.8,0-1.5,0.5-1.5,1.5v3.2h-1.3V7.7h1.3V11.3z"/>
	<path class="st1" d="M74.7,13.5c0,1.7-1.3,3-3.1,3c-1.8,0-3.1-1.3-3.1-3c0-1.7,1.3-3,3.1-3C73.4,10.5,74.7,11.8,74.7,13.5z
		 M69.8,13.5c0,1.1,0.8,1.8,1.8,1.8c1,0,1.8-0.8,1.8-1.8s-0.8-1.8-1.8-1.8C70.6,11.6,69.8,12.4,69.8,13.5z"/>
	<path class="st1" d="M82.2,13.5c0,1.8-1.3,3-2.9,3c-0.8,0-1.4-0.3-1.8-0.8v3.1h-1.3v-8.1h1.3v0.7c0.4-0.5,1-0.8,1.8-0.8
		C80.9,10.5,82.2,11.7,82.2,13.5z M77.4,13.5c0,1,0.7,1.8,1.7,1.8c1.1,0,1.7-0.8,1.7-1.8c0-1-0.7-1.8-1.7-1.8
		C78.1,11.6,77.4,12.4,77.4,13.5z"/>
	<path class="st1" d="M87.7,12c-0.3-0.2-1.1-0.5-1.8-0.5c-0.7,0-1.1,0.3-1.1,0.7c0,0.4,0.4,0.5,0.9,0.6l0.6,0.1c1.3,0.2,2,0.7,2,1.7
		c0,1.1-1,1.9-2.6,1.9c-0.6,0-1.6-0.1-2.5-0.7l0.6-0.9c0.4,0.3,1,0.6,1.9,0.6c0.9,0,1.3-0.3,1.3-0.7c0-0.3-0.3-0.5-1-0.6L85.4,14
		c-1.3-0.2-1.9-0.8-1.9-1.7c0-1.1,0.9-1.8,2.4-1.8c0.9,0,1.7,0.2,2.3,0.6L87.7,12z"/>
	<path class="st1" d="M98.6,16.4h-1.3v-0.7c-0.4,0.5-1,0.8-1.8,0.8c-1.6,0-2.9-1.3-2.9-3c0-1.8,1.3-3,2.9-3c0.8,0,1.4,0.3,1.8,0.8
		v-0.7h1.3V16.4z M93.9,13.5c0,1,0.7,1.8,1.7,1.8c1,0,1.7-0.8,1.7-1.8c0-1-0.7-1.8-1.7-1.8C94.6,11.6,93.9,12.5,93.9,13.5z"/>
	<path class="st1" d="M110,12.7v3.6h-1.3v-3.2c0-1-0.5-1.5-1.3-1.5c-0.8,0-1.5,0.5-1.5,1.5v3.2h-1.3v-3.2c0-1-0.5-1.5-1.3-1.5
		c-0.8,0-1.5,0.5-1.5,1.5v3.2h-1.3v-5.7h1.2v0.7c0.5-0.7,1.2-0.9,1.8-0.9c0.9,0,1.6,0.4,2,1c0.5-0.8,1.4-1,2.1-1
		C109,10.5,110,11.4,110,12.7z"/>
	<path class="st1" d="M116.6,11.5h4.5V8h1.4v8.4h-1.4v-3.6h-4.5v3.6h-1.4V8h1.4V11.5z"/>
	<path class="st1" d="M130.2,16.4h-1.3v-0.7c-0.4,0.5-1,0.8-1.8,0.8c-1.6,0-2.9-1.3-2.9-3c0-1.8,1.3-3,2.9-3c0.8,0,1.4,0.3,1.8,0.8
		v-0.7h1.3V16.4z M125.5,13.5c0,1,0.7,1.8,1.7,1.8c1,0,1.7-0.8,1.7-1.8c0-1-0.7-1.8-1.7-1.8C126.2,11.6,125.5,12.5,125.5,13.5z"/>
	<path class="st1" d="M141.6,12.7v3.6h-1.3v-3.2c0-1-0.5-1.5-1.3-1.5c-0.8,0-1.5,0.5-1.5,1.5v3.2h-1.3v-3.2c0-1-0.5-1.5-1.3-1.5
		c-0.8,0-1.5,0.5-1.5,1.5v3.2h-1.3v-5.7h1.2v0.7c0.5-0.7,1.2-0.9,1.8-0.9c0.9,0,1.6,0.4,2,1c0.5-0.8,1.4-1,2.1-1
		C140.6,10.5,141.6,11.4,141.6,12.7z"/>
	<path class="st1" d="M149.4,13.5c0,1.8-1.3,3-2.9,3c-0.8,0-1.4-0.3-1.8-0.8v0.7h-1.3V7.7h1.3v3.6c0.4-0.5,1-0.8,1.8-0.8
		C148.1,10.5,149.4,11.7,149.4,13.5z M144.6,13.5c0,1,0.7,1.8,1.7,1.8c1.1,0,1.7-0.8,1.7-1.8c0-1-0.7-1.8-1.7-1.8
		C145.3,11.6,144.6,12.4,144.6,13.5z"/>
	<path class="st1" d="M156.2,13.9c0,1.8-1.3,2.6-2.7,2.6c-1.3,0-2.7-0.8-2.7-2.6v-3.3h1.3v3.2c0,1.1,0.6,1.5,1.4,1.5
		c0.8,0,1.4-0.4,1.4-1.5v-3.2h1.3V13.9z"/>
	<path class="st1" d="M162,10.6l-0.3,1.2c-0.3-0.1-0.6-0.2-1-0.2c-0.8,0-1.4,0.6-1.4,1.5v3.2h-1.3v-5.7h1.2v0.6
		c0.4-0.5,1-0.8,1.7-0.8C161.4,10.5,161.7,10.5,162,10.6z"/>
	<path class="st1" d="M167.2,11.3v-0.7h1.3V16c0,1.8-1.2,2.9-3.1,2.9c-0.9,0-1.8-0.2-2.4-0.7l0.5-1.1c0.6,0.4,1.2,0.6,1.9,0.6
		c1.2,0,1.8-0.6,1.8-1.7v-0.5c-0.4,0.6-1.1,0.8-1.9,0.8c-1.3,0-2.7-1.1-2.7-3c0-1.9,1.3-3,2.7-3C166.1,10.5,166.8,10.8,167.2,11.3z
		 M163.9,13.4c0,1,0.6,1.8,1.7,1.8c1,0,1.7-0.8,1.7-1.8c0-1-0.7-1.8-1.7-1.8C164.6,11.6,163.9,12.5,163.9,13.4z"/>
	<path class="st1" d="M25.8,30.8h-1.5l-0.8-2.1h-3.8l-0.8,2.1h-1.4l3.3-8.4h1.7L25.8,30.8z M20.2,27.3H23l-1.4-3.6L20.2,27.3z"/>
	<path class="st1" d="M28.5,23c0,0.5-0.4,0.9-0.9,0.9c-0.5,0-0.9-0.4-0.9-0.9s0.4-0.9,0.9-0.9C28.1,22.1,28.5,22.5,28.5,23z
		 M28.2,30.8H27V25h1.3V30.8z"/>
	<path class="st1" d="M34.1,25l-0.3,1.2c-0.3-0.1-0.6-0.2-1-0.2c-0.8,0-1.4,0.6-1.4,1.5v3.2h-1.3V25h1.2v0.6c0.4-0.5,1-0.8,1.7-0.8
		C33.5,24.9,33.8,24.9,34.1,25z"/>
	<path class="st1" d="M41.3,27.9c0,1.8-1.3,3-2.9,3c-0.8,0-1.4-0.3-1.8-0.8v3.1h-1.3V25h1.3v0.7c0.4-0.5,1-0.8,1.8-0.8
		C40,24.9,41.3,26.1,41.3,27.9z M36.5,27.9c0,1,0.7,1.8,1.7,1.8c1.1,0,1.7-0.8,1.7-1.8S39.3,26,38.3,26C37.2,26,36.5,26.8,36.5,27.9
		z"/>
	<path class="st1" d="M48.6,27.9c0,1.7-1.3,3-3.1,3c-1.8,0-3.1-1.3-3.1-3s1.3-3,3.1-3C47.3,24.9,48.6,26.2,48.6,27.9z M43.7,27.9
		c0,1.1,0.8,1.8,1.8,1.8c1,0,1.8-0.8,1.8-1.8c0-1.1-0.8-1.8-1.8-1.8C44.5,26,43.7,26.8,43.7,27.9z"/>
	<path class="st1" d="M54,25l-0.3,1.2c-0.3-0.1-0.6-0.2-1-0.2c-0.8,0-1.4,0.6-1.4,1.5v3.2h-1.3V25h1.2v0.6c0.4-0.5,1-0.8,1.7-0.8
		C53.5,24.9,53.8,24.9,54,25z"/>
	<path class="st1" d="M59.4,26.1h-2.2v2.5c0,0.8,0.4,1.1,0.9,1.1c0.4,0,0.8-0.2,1.2-0.4l0.5,1c-0.5,0.3-1,0.6-1.8,0.6
		c-1.3,0-2.1-0.7-2.1-2.2v-2.5h-1.1V25h1.1v-1.7h1.3V25h2.2V26.1z"/>
	<path class="st1" d="M68,26.4C67.7,26.2,67,26,66.3,26c-0.7,0-1.1,0.3-1.1,0.7c0,0.4,0.4,0.5,0.9,0.6l0.6,0.1c1.3,0.2,2,0.7,2,1.7
		c0,1.1-1,1.9-2.6,1.9c-0.6,0-1.6-0.1-2.5-0.7l0.6-0.9c0.4,0.3,1,0.6,1.9,0.6c0.9,0,1.3-0.3,1.3-0.7c0-0.3-0.3-0.5-1-0.6l-0.6-0.1
		c-1.3-0.2-1.9-0.8-1.9-1.7c0-1.1,0.9-1.8,2.4-1.8c0.9,0,1.7,0.2,2.3,0.6L68,26.4z"/>
	<path class="st1" d="M75.5,28.3c0,1.8-1.3,2.6-2.7,2.6c-1.3,0-2.7-0.8-2.7-2.6V25h1.3v3.2c0,1.1,0.6,1.5,1.4,1.5s1.4-0.4,1.4-1.5
		V25h1.3V28.3z"/>
	<path class="st1" d="M82.1,25.8l-0.8,0.9c-0.4-0.4-0.8-0.6-1.4-0.6c-1,0-1.7,0.8-1.7,1.8c0,1.1,0.7,1.8,1.7,1.8
		c0.6,0,1-0.3,1.4-0.6l0.8,0.9c-0.5,0.6-1.3,0.9-2.1,0.9c-1.8,0-3-1.3-3-3s1.2-3,3-3C80.8,24.9,81.6,25.2,82.1,25.8z"/>
	<path class="st1" d="M84.8,25.7c0.5-0.7,1.2-0.8,1.8-0.8c1.4,0,2.3,0.9,2.3,2.3v3.6h-1.3v-3.2c0-1-0.5-1.5-1.3-1.5
		c-0.8,0-1.5,0.5-1.5,1.5v3.2h-1.3v-8.6h1.3V25.7z"/>
	<path class="st1" d="M96,27.9c0,0.2,0,0.3,0,0.5h-4.2c0.2,1,0.9,1.5,1.7,1.5c0.6,0,1.2-0.2,1.7-0.6l0.6,0.9
		c-0.7,0.6-1.5,0.8-2.4,0.8c-1.7,0-2.9-1.2-2.9-3c0-1.8,1.2-3,2.9-3C94.8,24.9,95.9,26.1,96,27.9z M91.7,27.4h3
		C94.5,26.5,94,26,93.2,26C92.3,26,91.8,26.6,91.7,27.4z"/>
	<path class="st1" d="M102.9,27.1v3.6h-1.3v-3.2c0-1-0.5-1.5-1.3-1.5c-0.8,0-1.5,0.5-1.5,1.5v3.2h-1.3V25h1.2v0.7
		c0.5-0.7,1.2-0.9,1.8-0.9C101.9,24.9,102.9,25.8,102.9,27.1z"/>
	<path class="st1" d="M111.9,30.8h-1.7l-3.2-8.4h1.4l2.6,7l2.6-7h1.4L111.9,30.8z"/>
	<path class="st1" d="M120.8,27.9c0,0.2,0,0.3,0,0.5h-4.2c0.2,1,0.9,1.5,1.7,1.5c0.6,0,1.2-0.2,1.7-0.6l0.6,0.9
		c-0.7,0.6-1.5,0.8-2.4,0.8c-1.7,0-2.9-1.2-2.9-3c0-1.8,1.2-3,2.9-3C119.6,24.9,120.8,26.1,120.8,27.9z M116.5,27.4h3
		c-0.1-0.9-0.7-1.4-1.5-1.4C117.1,26,116.6,26.6,116.5,27.4z"/>
	<path class="st1" d="M126.2,25l-0.3,1.2c-0.3-0.1-0.6-0.2-1-0.2c-0.8,0-1.4,0.6-1.4,1.5v3.2h-1.3V25h1.2v0.6c0.4-0.5,1-0.8,1.7-0.8
		C125.6,24.9,125.9,24.9,126.2,25z"/>
	<path class="st1" d="M131.3,26.4c-0.3-0.2-1.1-0.5-1.8-0.5c-0.7,0-1.1,0.3-1.1,0.7c0,0.4,0.4,0.5,0.9,0.6l0.6,0.1
		c1.3,0.2,2,0.7,2,1.7c0,1.1-1,1.9-2.6,1.9c-0.6,0-1.6-0.1-2.5-0.7l0.6-0.9c0.4,0.3,1,0.6,1.9,0.6c0.9,0,1.3-0.3,1.3-0.7
		c0-0.3-0.3-0.5-1-0.6l-0.6-0.1c-1.3-0.2-1.9-0.8-1.9-1.7c0-1.1,0.9-1.8,2.4-1.8c0.9,0,1.7,0.2,2.3,0.6L131.3,26.4z"/>
	<path class="st1" d="M137.3,26.1h-2.2v2.5c0,0.8,0.4,1.1,0.9,1.1c0.4,0,0.8-0.2,1.2-0.4l0.5,1c-0.5,0.3-1,0.6-1.8,0.6
		c-1.3,0-2.1-0.7-2.1-2.2v-2.5h-1.1V25h1.1v-1.7h1.3V25h2.2V26.1z"/>
	<path class="st1" d="M144.4,30.8h-1.3v-0.7c-0.4,0.5-1,0.8-1.8,0.8c-1.6,0-2.9-1.3-2.9-3s1.3-3,2.9-3c0.8,0,1.4,0.3,1.8,0.8V25h1.3
		V30.8z M141.3,23.3c0,0.5-0.4,0.9-0.9,0.9s-0.9-0.4-0.9-0.9c0-0.5,0.4-0.9,0.9-0.9S141.3,22.8,141.3,23.3z M139.7,27.9
		c0,1,0.7,1.8,1.7,1.8c1,0,1.7-0.8,1.7-1.8s-0.7-1.8-1.7-1.8C140.4,26,139.7,26.9,139.7,27.9z M143.7,23.3c0,0.5-0.4,0.9-0.9,0.9
		c-0.5,0-0.9-0.4-0.9-0.9c0-0.5,0.4-0.9,0.9-0.9C143.3,22.4,143.7,22.8,143.7,23.3z"/>
	<path class="st1" d="M150.2,25l-0.3,1.2c-0.3-0.1-0.6-0.2-1-0.2c-0.8,0-1.4,0.6-1.4,1.5v3.2h-1.3V25h1.2v0.6c0.4-0.5,1-0.8,1.7-0.8
		C149.6,24.9,149.9,24.9,150.2,25z"/>
	<path class="st1" d="M152.8,27.2h0.6l1.9-2.2h1.6l-2.4,2.7l2.4,3h-1.6l-1.9-2.4h-0.6v2.4h-1.3v-8.6h1.3V27.2z"/>
	<path class="st1" d="M163.3,28.3c0,1.8-1.3,2.6-2.7,2.6c-1.3,0-2.7-0.8-2.7-2.6V25h1.3v3.2c0,1.1,0.6,1.5,1.4,1.5
		c0.8,0,1.4-0.4,1.4-1.5V25h1.3V28.3z"/>
	<path class="st1" d="M170.5,27.1v3.6h-1.3v-3.2c0-1-0.5-1.5-1.3-1.5c-0.8,0-1.5,0.5-1.5,1.5v3.2h-1.3V25h1.2v0.7
		c0.5-0.7,1.2-0.9,1.8-0.9C169.6,24.9,170.5,25.8,170.5,27.1z"/>
	<path class="st1" d="M176.6,25.7V25h1.3v5.3c0,1.8-1.2,2.9-3.1,2.9c-0.9,0-1.8-0.2-2.4-0.7l0.5-1.1c0.6,0.4,1.2,0.6,1.9,0.6
		c1.2,0,1.8-0.6,1.8-1.7v-0.5c-0.4,0.6-1.1,0.8-1.9,0.8c-1.3,0-2.7-1.1-2.7-3c0-1.9,1.3-3,2.7-3C175.5,24.9,176.2,25.2,176.6,25.7z
		 M173.3,27.8c0,1,0.6,1.8,1.7,1.8c1,0,1.7-0.8,1.7-1.8c0-1-0.7-1.8-1.7-1.8C174,26,173.3,26.9,173.3,27.8z"/>
	<path class="st1" d="M181.5,29.8c0,0.6-0.5,1.1-1,1.1s-1-0.5-1-1.1s0.5-1,1-1S181.5,29.3,181.5,29.8z"/>
</g>
</svg>
