<?xml version="1.0" encoding="utf-8"?>
<!-- Generator: $$$/GeneralStr/196=Adobe Illustrator 27.6.0, SVG Export Plug-In . SVG Version: 6.00 Build 0)  -->
<svg version="1.1" id="Ebene_1" xmlns="http://www.w3.org/2000/svg" xmlns:xlink="http://www.w3.org/1999/xlink" x="0px" y="0px"
	 viewBox="0 0 1024 1404.3" style="enable-background:new 0 0 1024 1404.3;" xml:space="preserve">
<style type="text/css">
	.st0{fill:#003063;stroke:#000000;stroke-miterlimit:10;}
	.st1{fill:#E9EDF8;}
	.st2{fill:#E6E5E5;}
	.st3{fill:#EFEFEF;}
	.st4{fill:#F9F9F9;}
	.st5{opacity:5.098000e-02;}
	.st6{fill-rule:evenodd;clip-rule:evenodd;}
	.st7{fill:#DDDDDD;}
	.st8{fill-rule:evenodd;clip-rule:evenodd;fill:#EAEAEA;}
	.st9{fill-rule:evenodd;clip-rule:evenodd;fill:#EFEFEF;}
	.st10{fill-rule:evenodd;clip-rule:evenodd;fill:#DDDDDD;}
	.st11{fill:#EAEAEA;}
	.st12{fill-rule:evenodd;clip-rule:evenodd;fill:#7D819A;}
	.st13{fill-rule:evenodd;clip-rule:evenodd;fill:#5A5F7E;}
	.st14{fill:#7D819A;}
	.st15{fill-rule:evenodd;clip-rule:evenodd;fill:#F9F9F9;}
</style>
<rect x="0.5" y="694.9" class="st0" width="1024.5" height="709.3"/>
<g>
	<path class="st1" d="M498.1,672.8h26.6c116.7,406.1,422.9,669,499.7,729.1v-944l-116.7-58l-794.2,1.7l-113,56.1L0,1402.9
		C413.6,1076,498.1,672.8,498.1,672.8z"/>
	<g>
		<g id="_x2018_Ť_x201E_ůūŗ_x5F_15">
			<path class="st2" d="M712.1,264.3h-25c-6.8,0-12.7,5.5-12.7,12.7v71.7c0,6.8,5.5,12.7,12.7,12.7h25c6.8,0,12.7-5.5,12.7-12.7V277
				C724.4,270.1,718.9,264.3,712.1,264.3z"/>
		</g>
		<g id="_x2018_Ť_x201E_ůūŗ_x5F_16">
			<rect x="677.6" y="276.9" class="st3" width="43.7" height="52.9"/>
		</g>
		<g id="_x2018_Ť_x201E_ůūŗ_x5F_17">
			<rect x="687.1" y="276.9" class="st4" width="25" height="52.9"/>
		</g>
		<g id="_x2018_Ť_x201E_ůūŗ_x5F_15_x5F__x5F_x28_x5F_ÍÓÔŤ_x2C7__x5F_x29_x5F_" class="st5">
			<path class="st6" d="M674.6,290.2v58.4c0,6.8,5.5,12.7,12.7,12.7h25c6.8,0,12.7-5.5,12.7-12.7v-42.3L674.6,290.2z"/>
		</g>
		<g id="_x2018_Ť_x201E_ůūŗ_x5F_6">
			<polygon class="st2" points="911.4,401.8 562.2,239.8 562.2,411 674.6,417.5 924,464.3 			"/>
		</g>
		<g id="_x2018_Ť_x201E_ůūŗ_x5F_11">
			<polygon class="st7" points="534.3,626.1 534.3,707 687.1,738.4 687.1,700.9 			"/>
		</g>
		<g id="_x2018_Ť_x201E_ůūŗ_x5F_11_x5F__x5F_x28_x5F_ÍÓÔŤ_x2C7__x5F_x29_x5F_">
			<path class="st8" d="M553.7,707.9l74.8,15.4v-6.5l-74.8-27.7V707.9z M631.8,724l52.5,10.6l-0.4-31.8L532,627.9l-2,75.1l20.8,4.1
				v-22.8l2.4,1.1l78.5,29.4l0,0L631.8,724L631.8,724z"/>
		</g>
		<g id="_x2018_Ť_x201E_ůūŗ_x5F_12">
			<polygon class="st4" points="530.4,644.9 523,661.2 668.4,715.8 668.4,712.8 			"/>
		</g>
		<g id="_x2018_Ť_x201E_ůūŗ_x5F_6_x5F__x5F_x28_x5F_ÍÓÔŤ_x2C7__x5F_x29_x5F_">
			<path class="st9" d="M578,409.4l93.5,4.8v-25L578,365.3V409.4z M674.6,414.1l74.8,14v-15l-74.8-23.2V414.1L674.6,414.1z
				 M752.3,428.8l167.6,31.4l-11.2-56.6L555.8,239.8l-3.1,168.3l22.2,1.1V361l1.7,0.4L673,386l0,0l79.9,25l0,0L752.3,428.8
				L752.3,428.8z"/>
		</g>
		<g id="_x2018_Ť_x201E_ůūŗ_x5F_7">
			<polygon class="st4" points="908.6,420.9 544.9,252 544.9,325.4 913.1,443.9 			"/>
		</g>
		<g id="_x2018_Ť_x201E_ůūŗ_x5F_15_x5F__x5F_x28_x5F_ÍÓÔŤ_x2C7__x5F_x29_x5F__x5F_2">
			<path class="st2" d="M337.7,264.3h-25c-6.8,0-12.7,5.5-12.7,12.7v71.7c0,6.8,5.5,12.7,12.7,12.7h25c6.8,0,12.7-5.5,12.7-12.7V277
				C350.2,270.1,344.8,264.3,337.7,264.3z"/>
		</g>
		<g id="_x2018_Ť_x201E_ůūŗ_x5F_16_x5F__x5F_x28_x5F_ÍÓÔŤ_x2C7__x5F_x29_x5F_">
			<rect x="303.5" y="276.9" class="st3" width="43.7" height="52.9"/>
		</g>
		<g id="_x2018_Ť_x201E_ůūŗ_x5F_17_x5F__x5F_x28_x5F_ÍÓÔŤ_x2C7__x5F_x29_x5F_">
			<rect x="312.7" y="276.9" class="st4" width="25" height="52.9"/>
		</g>
		<g id="_x2018_Ť_x201E_ůūŗ_x5F_15_x5F__x5F_x28_x5F_ÍÓÔŤ_x2C7__x5F_x29_x5F__x5F_3" class="st5">
			<path class="st6" d="M300.4,306.3v42.3c0,6.8,5.5,12.7,12.7,12.7h25c6.8,0,12.7-5.5,12.7-12.7v-58.4L300.4,306.3z"/>
		</g>
		<g id="_x2018_Ť_x201E_ůūŗ_x5F_6_x5F__x5F_x28_x5F_ÍÓÔŤ_x2C7__x5F_x29_x5F__x5F_2">
			<polygon class="st2" points="113.4,401.8 100.8,464.3 350.2,417.5 462.6,411 462.6,239.8 			"/>
		</g>
		<g id="_x2018_Ť_x201E_ůūŗ_x5F_11_x5F__x5F_x28_x5F_ÍÓÔŤ_x2C7__x5F_x29_x5F__x5F_2">
			<polygon class="st7" points="337.7,700.9 337.7,738.4 490.5,707 490.5,626.1 			"/>
		</g>
		<g id="_x2018_Ť_x201E_ůūŗ_x5F_11_x5F__x5F_x28_x5F_ÍÓÔŤ_x2C7__x5F_x29_x5F__x5F_3">
			<path class="st8" d="M396.1,723.3l74.8-15.4v-19.1l-74.8,27.7C396.1,716.5,396.1,723.3,396.1,723.3z M495,703.1l-2-75.1
				l-151.9,74.8l-0.4,31.8l52.5-10.6v-9.2l0,0l78.5-29.4l2.4-1.1v22.8L495,703.1z"/>
		</g>
		<g id="_x2018_Ť_x201E_ůūŗ_x5F_12_x5F__x5F_x28_x5F_ÍÓÔŤ_x2C7__x5F_x29_x5F_">
			<polygon class="st4" points="494.4,644.9 356.4,712.8 356.4,715.8 501.8,661.2 			"/>
		</g>
		<g id="_x2018_Ť_x201E_ůūŗ_x5F_6_x5F__x5F_x28_x5F_ÍÓÔŤ_x2C7__x5F_x29_x5F__x5F_3">
			<path class="st9" d="M275.6,428.5l74.8-14v-24.2l-74.8,23.2L275.6,428.5L275.6,428.5z M472.2,407.9l-3.1-168.3L115.8,403.9
				l-11.2,56.6l167.6-31.4v-17.8l0,0l79.9-25l0,0l96.2-24.6l1.7-0.4v48.1L472.2,407.9z M353.3,414.1l93.5-4.8v-44.1l-93.5,23.9
				C353.3,389.2,353.3,414.1,353.3,414.1z"/>
		</g>
		<g id="_x2018_Ť_x201E_ůūŗ_x5F_7_x5F__x5F_x28_x5F_ÍÓÔŤ_x2C7__x5F_x29_x5F_">
			<polygon class="st4" points="116.2,420.9 111.7,443.9 479.9,325.4 479.9,252 			"/>
		</g>
		<g id="_x2018_Ť_x201E_ůūŗ_x5F_6_x5F__x5F_x28_x5F_ÍÓÔŤ_x2C7__x5F_x29_x5F__x5F_4" class="st5">
			<polygon class="st6" points="412.8,413.8 462.6,411 462.6,239.8 412.8,262.9 			"/>
		</g>
		<g id="_x2018_Ť_x201E_ůūŗ_x5F_1">
			<path class="st10" d="M512.4,2.5c-12.7,0-49.8,37.5-49.8,87.4v399c0,49.8,25,212,25,212c0,13.6,11.2,25,25,25
				c13.6,0,25-11.2,25-25c0,0,25-162.2,25-212v-399C562.2,40.1,525.1,2.5,512.4,2.5z"/>
		</g>
		<g id="_x2018_Ť_x201E_ůūŗ_x5F_3">
			<path class="st11" d="M512.4,5.6c-12.7,0-46.8,37.5-46.8,84.3c0,37.5,0,389.8,0,399c0,49.8,25,207.4,25,212
				c0,11.9,9.9,21.9,21.9,21.9c11.9,0,21.9-9.9,21.9-21.9c0-4.4,25-162.2,25-212s0-383.2,0-399C559.2,43.1,525.1,5.6,512.4,5.6z"/>
		</g>
		<g id="_x2018_Ť_x201E_ůūŗ_x5F_4">
			<path class="st12" d="M551.9,170.8h1.7c1.3,0,2.4-2.7,2.4-6.1s-1.1-6.1-2.4-6.1h-1.7c-1.3,0-2.4,2.7-2.4,6.1
				C549.9,168,551,170.8,551.9,170.8z M553.7,177.2H552c-1.3,0-2.4,2.7-2.4,6.1c0,3.5,1.1,6.1,2.4,6.1h1.7c1.3,0,2.4-2.7,2.4-6.1
				C556.1,180,555,177.2,553.7,177.2z M553.7,195.7H552c-1.3,0-2.4,2.7-2.4,6.1s1.1,6.1,2.4,6.1h1.7c1.3,0,2.4-2.7,2.4-6.1
				S555,195.7,553.7,195.7z M553.7,214.5H552c-1.3,0-2.4,2.7-2.4,6.1s1.1,6.1,2.4,6.1h1.7c1.3,0,2.4-2.7,2.4-6.1
				S555,214.5,553.7,214.5z M553.7,233.2H552c-1.3,0-2.4,2.7-2.4,6.1s1.1,6.1,2.4,6.1h1.7c1.3,0,2.4-2.7,2.4-6.1
				C556.1,236,555,233.2,553.7,233.2z M553.7,252H552c-1.3,0-2.4,2.7-2.4,6.1c0,3.4,1.1,6.1,2.4,6.1h1.7c1.3,0,2.4-2.7,2.4-6.1
				C556.1,254.7,555,252,553.7,252z M553.7,270.7H552c-1.3,0-2.4,2.7-2.4,6.1s1.1,6.1,2.4,6.1h1.7c1.3,0,2.4-2.7,2.4-6.1
				C556.1,273.6,555,270.7,553.7,270.7z M553.7,289.2H552c-1.3,0-2.4,2.7-2.4,6.1c0,3.5,1.1,6.1,2.4,6.1h1.7c1.3,0,2.4-2.7,2.4-6.1
				C556.1,292,555,289.2,553.7,289.2z M553.7,308H552c-1.3,0-2.4,2.7-2.4,6.1c0,3.5,1.1,6.1,2.4,6.1h1.7c1.3,0,2.4-2.7,2.4-6.1
				C556.1,310.7,555,308,553.7,308z M553.7,326.7H552c-1.3,0-2.4,2.7-2.4,6.1s1.1,6.1,2.4,6.1h1.7c1.3,0,2.4-2.7,2.4-6.1
				C556.1,329.5,555,326.7,553.7,326.7z M553.7,345.5H552c-1.3,0-2.4,2.7-2.4,6.1s1.1,6.1,2.4,6.1h1.7c1.3,0,2.4-2.7,2.4-6.1
				S555,345.5,553.7,345.5z M553.7,364.2H552c-1.3,0-2.4,2.7-2.4,6.1s1.1,6.1,2.4,6.1h1.7c1.3,0,2.4-2.7,2.4-6.1
				S555,364.2,553.7,364.2z M553.7,382.7H552c-1.3,0-2.4,2.7-2.4,6.1c0,3.5,1.1,6.1,2.4,6.1h1.7c1.3,0,2.4-2.7,2.4-6.1
				C556.1,385.5,555,382.7,553.7,382.7z M553.7,401.5H552c-1.3,0-2.4,2.7-2.4,6.1c0,3.5,1.1,6.1,2.4,6.1h1.7c1.3,0,2.4-2.7,2.4-6.1
				C556.1,404.2,555,401.5,553.7,401.5z M553.7,420.2H552c-1.3,0-2.4,2.7-2.4,6.1s1.1,6.1,2.4,6.1h1.7c1.3,0,2.4-2.7,2.4-6.1
				S555,420.2,553.7,420.2z M472.9,158.5h-1.7c-1.3,0-2.4,2.7-2.4,6.1c0,3.5,1.1,6.1,2.4,6.1h1.7c1.3,0,2.4-2.7,2.4-6.1
				C474.9,161.2,473.8,158.5,472.9,158.5z M472.9,177.2h-1.7c-1.3,0-2.4,2.7-2.4,6.1c0,3.5,1.1,6.1,2.4,6.1h1.7
				c1.3,0,2.4-2.7,2.4-6.1C474.9,180,473.8,177.2,472.9,177.2z M472.9,195.7h-1.7c-1.3,0-2.4,2.7-2.4,6.1s1.1,6.1,2.4,6.1h1.7
				c1.3,0,2.4-2.7,2.4-6.1C474.9,198.5,473.8,195.7,472.9,195.7z M472.9,214.5h-1.7c-1.3,0-2.4,2.7-2.4,6.1s1.1,6.1,2.4,6.1h1.7
				c1.3,0,2.4-2.7,2.4-6.1S473.8,214.5,472.9,214.5z M472.9,233.2h-1.7c-1.3,0-2.4,2.7-2.4,6.1s1.1,6.1,2.4,6.1h1.7
				c1.3,0,2.4-2.7,2.4-6.1C475.3,236,473.8,233.2,472.9,233.2z M472.9,252h-1.7c-1.3,0-2.4,2.7-2.4,6.1c0,3.4,1.1,6.1,2.4,6.1h1.7
				c1.3,0,2.4-2.7,2.4-6.1C474.9,254.7,473.8,252,472.9,252z M472.9,270.7h-1.7c-1.3,0-2.4,2.7-2.4,6.1s1.1,6.1,2.4,6.1h1.7
				c1.3,0,2.4-2.7,2.4-6.1C475.3,273.6,473.8,270.7,472.9,270.7z M472.9,289.2h-1.7c-1.3,0-2.4,2.7-2.4,6.1c0,3.5,1.1,6.1,2.4,6.1
				h1.7c1.3,0,2.4-2.7,2.4-6.1C474.9,292,473.8,289.2,472.9,289.2z M472.9,308h-1.7c-1.3,0-2.4,2.7-2.4,6.1c0,3.5,1.1,6.1,2.4,6.1
				h1.7c1.3,0,2.4-2.7,2.4-6.1C474.9,310.7,473.8,308,472.9,308z M472.9,326.7h-1.7c-1.3,0-2.4,2.7-2.4,6.1s1.1,6.1,2.4,6.1h1.7
				c1.3,0,2.4-2.7,2.4-6.1C474.9,329.5,473.8,326.7,472.9,326.7z M472.9,345.5h-1.7c-1.3,0-2.4,2.7-2.4,6.1s1.1,6.1,2.4,6.1h1.7
				c1.3,0,2.4-2.7,2.4-6.1C474.9,348.2,473.8,345.5,472.9,345.5z M472.9,364.2h-1.7c-1.3,0-2.4,2.7-2.4,6.1s1.1,6.1,2.4,6.1h1.7
				c1.3,0,2.4-2.7,2.4-6.1S473.8,364.2,472.9,364.2z M472.9,382.7h-1.7c-1.3,0-2.4,2.7-2.4,6.1c0,3.5,1.1,6.1,2.4,6.1h1.7
				c1.3,0,2.4-2.7,2.4-6.1C474.9,385.5,473.8,382.7,472.9,382.7z M472.9,401.5h-1.7c-1.3,0-2.4,2.7-2.4,6.1c0,3.5,1.1,6.1,2.4,6.1
				h1.7c1.3,0,2.4-2.7,2.4-6.1C474.9,404.2,473.8,401.5,472.9,401.5z M472.9,420.2h-1.7c-1.3,0-2.4,2.7-2.4,6.1s1.1,6.1,2.4,6.1h1.7
				c1.3,0,2.4-2.7,2.4-6.1C474.9,423,473.8,420.2,472.9,420.2z"/>
		</g>
		<g id="_x2018_Ť_x201E_ůūŗ_x5F_4_x5F__x5F_x28_x5F_ÍÓÔŤ_x2C7__x5F_x29_x5F_">
			<path class="st13" d="M472.9,326.7L472.9,326.7h-1.7c-1.3,0-2.4,2.7-2.4,6.1s1.1,6.1,2.4,6.1h1.7c0,0,0,0,0.4,0
				c-1.1-0.4-2-3.1-2-6.1C470.7,329.8,471.8,327.1,472.9,326.7z M472.9,308L472.9,308h-1.7c-1.3,0-2.4,2.7-2.4,6.1
				c0,3.5,1.1,6.1,2.4,6.1h1.7c0,0,0,0,0.4,0c-1.1-0.4-2-3.1-2-6.1C470.7,311.1,471.8,308.3,472.9,308z M472.9,289.2L472.9,289.2
				h-1.7c-1.3,0-2.4,2.7-2.4,6.1c0,3.5,1.1,6.1,2.4,6.1h1.7c0,0,0,0,0.4,0c-1.1-0.4-2-3.1-2-6.1
				C470.7,292.3,471.8,289.6,472.9,289.2z M472.9,345.5L472.9,345.5h-1.7c-1.3,0-2.4,2.7-2.4,6.1s1.1,6.1,2.4,6.1h1.7c0,0,0,0,0.4,0
				c-1.1-0.4-2-3.1-2-6.1C470.7,348.2,471.8,345.8,472.9,345.5z M472.9,382.7L472.9,382.7h-1.7c-1.3,0-2.4,2.7-2.4,6.1
				c0,3.5,1.1,6.1,2.4,6.1h1.7c0,0,0,0,0.4,0c-1.1-0.4-2-3.1-2-6.1C470.7,385.8,471.8,383.1,472.9,382.7z M472.9,270.7L472.9,270.7
				h-1.7c-1.3,0-2.4,2.7-2.4,6.1s1.1,6.1,2.4,6.1h1.7c0,0,0,0,0.4,0c-1.1-0.4-2-3.1-2-6.1C470.7,273.6,471.8,270.7,472.9,270.7z
				 M472.9,364.2L472.9,364.2h-1.7c-1.3,0-2.4,2.7-2.4,6.1s1.1,6.1,2.4,6.1h1.7c0,0,0,0,0.4,0c-1.1-0.4-2-3.1-2-6.1
				C471.3,367.3,471.8,364.2,472.9,364.2z M472.9,214.5L472.9,214.5h-1.7c-1.3,0-2.4,2.7-2.4,6.1s1.1,6.1,2.4,6.1h1.7c0,0,0,0,0.4,0
				c-1.1-0.4-2-3.1-2-6.1S471.8,214.8,472.9,214.5z M472.9,252L472.9,252h-1.7c-1.3,0-2.4,2.7-2.4,6.1c0,3.4,1.1,6.1,2.4,6.1h1.7
				c0,0,0,0,0.4,0c-1.1-0.4-2-3.1-2-6.1C470.7,254.7,471.8,252.3,472.9,252z M551.9,170.8L551.9,170.8h1.7c1.3,0,2.4-2.7,2.4-6.1
				s-1.1-6.1-2.4-6.1h-1.7l0,0c1.3,0.4,2,2.7,2,6.1C554.3,167.8,553.4,170.4,551.9,170.8z M472.9,177.2L472.9,177.2h-1.7
				c-1.3,0-2.4,2.7-2.4,6.1c0,3.5,1.1,6.1,2.4,6.1h1.7c0,0,0,0,0.4,0c-1.1-0.4-2-3.1-2-6.1C470.7,180,471.8,177.2,472.9,177.2z
				 M472.9,158.5L472.9,158.5h-1.7c-1.3,0-2.4,2.7-2.4,6.1c0,3.5,1.1,6.1,2.4,6.1h1.7c0,0,0,0,0.4,0c-1.1-0.4-2-3.1-2-6.1
				C470.7,161.2,471.8,158.8,472.9,158.5z M472.9,233.2L472.9,233.2h-1.7c-1.3,0-2.4,2.7-2.4,6.1s1.1,6.1,2.4,6.1h1.7c0,0,0,0,0.4,0
				c-1.1-0.4-2-3.1-2-6.1C471.1,236.3,471.8,233.6,472.9,233.2z M472.9,195.7L472.9,195.7h-1.7c-1.3,0-2.4,2.7-2.4,6.1
				s1.1,6.1,2.4,6.1h1.7c0,0,0,0,0.4,0c-1.1-0.4-2-3.1-2-6.1C470.7,198.7,471.8,196.1,472.9,195.7z M472.9,401.5L472.9,401.5h-1.7
				c-1.3,0-2.4,2.7-2.4,6.1c0,3.5,1.1,6.1,2.4,6.1h1.7c0,0,0,0,0.4,0c-1.1-0.4-2-3.1-2-6.1S471.8,401.8,472.9,401.5z M472.9,420.2
				L472.9,420.2h-1.7c-1.3,0-2.4,2.7-2.4,6.1s1.1,6.1,2.4,6.1h1.7c0,0,0,0,0.4,0c-1.1-0.4-2-3.1-2-6.1
				C470.7,423.3,471.8,420.6,472.9,420.2z M553.7,252H552l0,0c1.3,0.4,2,2.7,2,6.1c0,3.4-1.1,6.1-2,6.1l0,0h1.7
				c1.3,0,2.4-2.7,2.4-6.1C556.1,254.7,555,252,553.7,252z M553.7,289.2H552l0,0c1.3,0.4,2,2.7,2,6.1c0,3.5-1.1,6.1-2,6.1l0,0h1.7
				c1.3,0,2.4-2.7,2.4-6.1C556.1,292,555,289.2,553.7,289.2z M553.7,270.7H552l0,0c1.3,0.4,2,2.7,2,6.1s-1.1,6.1-2,6.1l0,0h1.7
				c1.3,0,2.4-2.7,2.4-6.1C556.1,273.6,555,270.7,553.7,270.7z M553.7,233.2H552l0,0c1.3,0.4,2,2.7,2,6.1s-1.1,6.1-2,6.1l0,0h1.7
				c1.3,0,2.4-2.7,2.4-6.1C556.1,236,555,233.2,553.7,233.2z M553.7,177.2H552l0,0c1.3,0.4,2,2.7,2,6.1c0,3.5-1.1,6.1-2,6.1l0,0h1.7
				c1.3,0,2.4-2.7,2.4-6.1C556.1,180,555,177.2,553.7,177.2z M553.7,195.7H552l0,0c1.3,0.4,2,2.7,2,6.1s-1.1,6.1-2,6.1l0,0h1.7
				c1.3,0,2.4-2.7,2.4-6.1S555,195.7,553.7,195.7z M553.7,420.2H552l0,0c1.3,0.4,2,2.7,2,6.1s-1.1,6.1-2,6.1l0,0h1.7
				c1.3,0,2.4-2.7,2.4-6.1S555,420.2,553.7,420.2z M553.7,214.5H552l0,0c1.3,0.4,2,2.7,2,6.1s-1.1,6.1-2,6.1l0,0h1.7
				c1.3,0,2.4-2.7,2.4-6.1S555,214.5,553.7,214.5z M553.7,382.7H552l0,0c1.3,0.4,2,2.7,2,6.1c0,3.5-1.1,6.1-2,6.1l0,0h1.7
				c1.3,0,2.4-2.7,2.4-6.1C556.1,385.5,555,382.7,553.7,382.7z M553.7,364.2H552l0,0c1.3,0.4,2,2.7,2,6.1s-1.1,6.1-2,6.1l0,0h1.7
				c1.3,0,2.4-2.7,2.4-6.1S555,364.2,553.7,364.2z M553.7,308H552l0,0c1.3,0.4,2,2.7,2,6.1c0,3.5-1.1,6.1-2,6.1l0,0h1.7
				c1.3,0,2.4-2.7,2.4-6.1C556.1,310.7,555,308,553.7,308z M553.7,401.5H552l0,0c1.3,0.4,2,2.7,2,6.1c0,3.5-1.1,6.1-2,6.1l0,0h1.7
				c1.3,0,2.4-2.7,2.4-6.1C556.1,404.2,555,401.5,553.7,401.5z M553.7,345.5H552l0,0c1.3,0.4,2,2.7,2,6.1s-1.1,6.1-2,6.1l0,0h1.7
				c1.3,0,2.4-2.7,2.4-6.1S555,345.5,553.7,345.5z M553.7,326.7H552l0,0c1.3,0.4,2,2.7,2,6.1s-1.1,6.1-2,6.1l0,0h1.7
				c1.3,0,2.4-2.7,2.4-6.1C556.1,329.5,555,326.7,553.7,326.7z"/>
		</g>
		<g id="_x2018_Ť_x201E_ůūŗ_x5F_9">
			<path class="st10" d="M556.1,145.9c-3.5,0-6.1-2.7-6.1-6.1v-15.6c0-3.5,2.7-6.1,6.1-6.1c3.5,0,4.8,0,4.8,0v6.5v-9.9
				c0,0-0.7,0-4.8,0c-5.1,0-9.2,4.1-9.2,9.2v15.8c0,5.1,4.1,9.2,9.2,9.2c3.7,0,4.4,0,4.8,0v-3.1
				C560.2,145.9,558.8,145.9,556.1,145.9z"/>
		</g>
		<g id="_x2018_Ť_x201E_ůūŗ_x5F_10">
			<path class="st14" d="M554.3,127.2c-1.1,0-1.7,0.7-1.7,1.7v6.1c0,1.1,0.7,1.7,1.7,1.7s1.7-0.7,1.7-1.7v-6.1
				C556.1,127.8,555.4,127.2,554.3,127.2z"/>
		</g>
		<g id="_x2018_Ť_x201E_ůūŗ_x5F_9_x5F__x5F_x28_x5F_ÍÓÔŤ_x2C7__x5F_x29_x5F_">
			<path class="st10" d="M468.7,114.9c-4.1,0-4.8,0-4.8,0v9.9v-6.5c0,0,1.3,0,4.8,0s6.1,2.7,6.1,6.1v15.8c0,3.5-2.7,6.1-6.1,6.1
				c-2.7,0-4.1,0-4.8,0v3.1c0,0,0.7,0,4.8,0c5.1,0,9.2-4.1,9.2-9.2v-15.8C478.2,118.9,473.8,114.9,468.7,114.9z"/>
		</g>
		<g id="_x2018_Ť_x201E_ůūŗ_x5F_10_x5F__x5F_x28_x5F_ÍÓÔŤ_x2C7__x5F_x29_x5F_">
			<path class="st14" d="M470.5,127.2c-1.1,0-1.7,0.7-1.7,1.7v6.1c0,1.1,0.7,1.7,1.7,1.7s1.7-0.7,1.7-1.7v-6.1
				C471.8,127.8,471.1,127.2,470.5,127.2z"/>
		</g>
		<g id="_x2018_Ť_x201E_ůūŗ_x5F_9_x5F__x5F_x28_x5F_ÍÓÔŤ_x2C7__x5F_x29_x5F__x5F_2">
			<path class="st10" d="M556.1,473.5c-3.5,0-6.1-2.7-6.1-6.1v-15.8c0-3.5,2.7-6.1,6.1-6.1c3.5,0,4.8,0,4.8,0v6.5v-9.9
				c0,0-0.7,0-4.8,0c-5.1,0-9.2,4.1-9.2,9.2v15.8c0,5.1,4.1,9.2,9.2,9.2c3.7,0,4.4,0,4.8,0v-3.1
				C560.2,473.5,558.8,473.5,556.1,473.5z"/>
		</g>
		<g id="_x2018_Ť_x201E_ůūŗ_x5F_10_x5F__x5F_x28_x5F_ÍÓÔŤ_x2C7__x5F_x29_x5F__x5F_2">
			<path class="st14" d="M554.3,454.7c-1.1,0-1.7,0.7-1.7,1.7v6.1c0,1.1,0.7,1.7,1.7,1.7s1.7-0.7,1.7-1.7v-6.1
				C556.1,455.5,555.4,454.7,554.3,454.7z"/>
		</g>
		<g id="_x2018_Ť_x201E_ůūŗ_x5F_9_x5F__x5F_x28_x5F_ÍÓÔŤ_x2C7__x5F_x29_x5F__x5F_3">
			<path class="st10" d="M468.7,442.1c-4.1,0-4.8,0-4.8,0v9.9v-6.5c0,0,1.3,0,4.8,0s6.1,2.7,6.1,6.1v15.8c0,3.5-2.7,6.1-6.1,6.1
				c-2.7,0-4.1,0-4.8,0v3.1c0,0,0.7,0,4.8,0c5.1,0,9.2-4.1,9.2-9.2v-15.8C478.2,446.5,473.8,442.1,468.7,442.1z"/>
		</g>
		<g id="_x2018_Ť_x201E_ůūŗ_x5F_10_x5F__x5F_x28_x5F_ÍÓÔŤ_x2C7__x5F_x29_x5F__x5F_3">
			<path class="st14" d="M470.5,454.7c-1.1,0-1.7,0.7-1.7,1.7v6.1c0,1.1,0.7,1.7,1.7,1.7s1.7-0.7,1.7-1.7v-6.1
				C471.8,455.5,471.1,454.7,470.5,454.7z"/>
		</g>
		<g id="_x2018_Ť_x201E_ůūŗ_x5F_5">
			<path class="st4" d="M512.4,71.2c-17.1,0-31.1,14-31.1,31.1v374c0,17.1,14,31.1,31.1,31.1c17.1,0,31.1-14,31.1-31.1v-374
				C543.5,85.1,529.5,71.2,512.4,71.2z"/>
		</g>
		<g id="_x2018_Ť_x201E_ůūŗ_x5F_14">
			<path class="st15" d="M481.3,476.2l18.8,162.2c0,6.8,5.5,12.7,12.7,12.7s12.7-5.5,12.7-12.7l18.8-162.2H481.3z"/>
		</g>
		<g id="_x2018_Ť_x201E_ůūŗ_x5F_1_x5F__x5F_x28_x5F_ÍÓÔŤ_x2C7__x5F_x29_x5F__x5F_1_x5F_" class="st5">
			<path class="st6" d="M396.7,726.1l91.8-18.8c2.7,10.3,11.9,17.8,23.2,18l-2-167.1c0,0-14.3,27-33.4,63.2c0.4,3.7,1.1,7.2,1.3,11
				L421,660C410.7,682.4,402.9,705.3,396.7,726.1z"/>
		</g>
		<g id="_x2018_Ť_x201E_ůūŗ_x5F_8">
			<path class="st12" d="M474.9,93c0,1.7,0,3.5,0.4,5.1c1.1-9.2,5.5-17.4,11.9-23.5l-5.1-9.2C477.5,73.2,474.9,82.7,474.9,93z
				 M484.1,62.6l5.5,9.9c5.7-4.4,13.4-7.5,21.1-7.9V45.8C500.1,46.9,490.5,53,484.1,62.6z M514.1,46.2V65c7.9,0.4,15.4,3.1,21.1,7.9
				l5.5-9.9C534.3,53,524.7,46.9,514.1,46.2z M542.7,65.7l-5.1,9.2c6.5,5.7,11,14.3,11.9,23.5c0-1.7,0.4-3.5,0.4-5.1
				C549.9,82.7,547.3,73.2,542.7,65.7z"/>
		</g>
		<g id="_x2018_Ť_x201E_ůūŗ_x5F_8_x5F__x5F_x28_x5F_ÍÓÔŤ_x2C7__x5F_x29_x5F_">
			<path class="st13" d="M474.9,93c0,0.4,0,0.4,0,0.7c0-10.3,3.1-19.5,7.9-26.6l-0.7-1.3C477.5,73.2,474.9,82.7,474.9,93z
				 M542.7,65.7L542,67c4.8,7.5,7.5,16.7,7.9,26.6c0-0.4,0-0.4,0-0.7C549.9,82.7,547.3,73.2,542.7,65.7z M514.1,46.2v3.1
				c10.3,0.7,19.5,6.1,26.3,14.7l0.7-1.3C534.3,53,524.7,46.9,514.1,46.2z M484.1,62.6l0.7,1.3c6.5-8.5,15.8-14.3,25.9-14.7v-3.1
				C500.1,46.9,490.5,53,484.1,62.6z"/>
		</g>
		<g id="_x2018_Ť_x201E_ůūŗ_x5F_13_x5F_1_x5F_">
			<path class="st7" d="M518.5,560.5c0-7.5-12.7-7.5-12.7,0l-3.1,193.2c0,5.1,4.1,9.2,9.2,9.2s9.2-4.1,9.2-9.2L518.5,560.5z"/>
		</g>
		<g id="_x2018_Ť_x201E_ůūŗ_x5F_13_x5F__x5F_x28_x5F_ÍÓÔŤ_x2C7__x5F_x29_x5F_">
			<path class="st11" d="M514.8,561.5c0-3.5-4.8-3.5-4.8,0l-4.8,192.1c0,4.1,3.1,7.2,7.2,7.2c4.1,0,7.2-3.1,7.2-7.2L514.8,561.5z"/>
		</g>
	</g>
</g>
</svg>
