<?xml version="1.0" encoding="utf-8"?>
<!-- Generator: $$$/GeneralStr/196=Adobe Illustrator 27.6.0, SVG Export Plug-In . SVG Version: 6.00 Build 0)  -->
<svg version="1.1" id="Ebene_1" xmlns="http://www.w3.org/2000/svg" xmlns:xlink="http://www.w3.org/1999/xlink" x="0px" y="0px"
	 viewBox="0 0 201.2 80.1" style="enable-background:new 0 0 201.2 80.1;" xml:space="preserve">
<style type="text/css">
	.st0{fill:#004E91;}
</style>
<g>
	<path class="st0" d="M16.7,4.6L14.2,7c-1-1.1-2.4-1.8-4.2-1.8c-3.2,0-5.5,2.3-5.5,5.7c0,3.5,2.4,5.8,5.4,5.8c2.8,0,4.5-1.4,4.9-3.8
		h-4.4V10h8c0,0.3,0,0.7,0,1c0,5.2-3.6,8.9-8.5,8.9c-4.8,0-9.1-3.4-9.1-9c0-5.2,3.8-9,9.1-9C12.9,1.9,15.1,2.9,16.7,4.6z"/>
	<path class="st0" d="M33.2,19.6H30v-1.3c-0.8,1-1.9,1.6-3.6,1.6c-3.3,0-5.8-2.7-5.8-6.3s2.5-6.3,5.8-6.3c1.6,0,2.8,0.7,3.6,1.6V7.6
		h3.2V19.6z M23.9,13.6c0,1.8,1.2,3.3,3.1,3.3c1.8,0,3.1-1.4,3.1-3.3c0-1.9-1.2-3.3-3.1-3.3C25.1,10.3,23.9,11.7,23.9,13.6z"/>
	<path class="st0" d="M45.1,10.9c-1-0.5-2.5-1-3.8-1c-1.2,0-1.8,0.4-1.8,1.1c0,0.7,0.9,0.9,2,1l1.1,0.2c2.6,0.4,4,1.6,4,3.6
		c0,2.5-2,4.1-5.5,4.1c-1.6,0-3.8-0.3-5.3-1.4L37,16c1,0.7,2.3,1.2,4.1,1.2c1.5,0,2.2-0.4,2.2-1.1c0-0.6-0.6-0.9-2-1.1l-1-0.1
		c-2.8-0.4-4.1-1.6-4.1-3.6c0-2.5,1.9-3.9,5.1-3.9c1.9,0,3.4,0.4,5,1.1L45.1,10.9z"/>
	<path class="st0" d="M57.7,10.4h-4.3v4.4c0,1.5,0.8,2,1.8,2c0.8,0,1.6-0.4,2.3-0.8l1.2,2.5c-1.1,0.7-2.3,1.3-4,1.3
		c-3,0-4.5-1.7-4.5-4.8v-4.6h-2.3V7.6h2.3V4h3.2v3.6h4.3V10.4z"/>
	<path class="st0" d="M68.4,10.4h-3.7v9.1h-3.2v-9.1h-2.2V7.6h2.2V6.1c0-2.8,1.5-4.7,4.3-4.7c1.6,0,2.8,0.5,3.7,1.1L68.1,5
		c-0.6-0.3-1.3-0.6-2.1-0.6c-0.9,0-1.4,0.6-1.4,1.7v1.4h3.7V10.4z"/>
	<path class="st0" d="M78.8,7.5l-0.5,3.2c-0.5-0.2-1.3-0.4-2-0.4c-1.5,0-2.5,0.9-2.5,2.7v6.5h-3.2v-12h3.1v1.3
		c0.8-1.1,1.9-1.6,3.4-1.6C77.8,7.3,78.3,7.4,78.8,7.5z"/>
	<path class="st0" d="M91.7,13.6c0,0.4,0,0.8-0.1,1.1h-8.5c0.3,1.7,1.6,2.5,3.1,2.5c1,0,2.2-0.4,3-1.2l1.9,2.1
		c-1.4,1.2-3.1,1.8-5.1,1.8c-3.7,0-6.2-2.5-6.2-6.3s2.5-6.3,6.1-6.3C89.4,7.3,91.7,9.8,91.7,13.6z M83.2,12.4h5.3
		c-0.3-1.5-1.2-2.4-2.6-2.4C84.4,10,83.5,11,83.2,12.4z"/>
	<path class="st0" d="M105.6,14.5c0,3.8-2.7,5.4-5.7,5.4c-3,0-5.7-1.6-5.7-5.4V7.6h3.2v6.6c0,1.9,1.1,2.7,2.5,2.7
		c1.4,0,2.5-0.8,2.5-2.7V7.6h3.2V14.5z"/>
	<path class="st0" d="M120.2,11.9v7.6H117V13c0-1.7-0.9-2.7-2.3-2.7c-1.4,0-2.5,0.9-2.5,2.7v6.6h-3.2v-12h3.1V9
		c0.9-1.3,2.2-1.7,3.5-1.7C118.3,7.3,120.2,9.1,120.2,11.9z"/>
	<path class="st0" d="M132.1,8.8V1.7h3.2v17.8h-3.2v-1.3c-0.8,1-1.9,1.6-3.6,1.6c-3.3,0-5.8-2.7-5.8-6.3s2.5-6.3,5.8-6.3
		C130.2,7.3,131.3,7.9,132.1,8.8z M126.1,13.6c0,1.8,1.2,3.3,3.1,3.3c1.8,0,3.1-1.4,3.1-3.3c0-1.9-1.2-3.3-3.1-3.3
		C127.3,10.3,126.1,11.7,126.1,13.6z"/>
	<path class="st0" d="M149.9,13.6c0,0.4,0,0.8-0.1,1.1h-8.5c0.3,1.7,1.6,2.5,3.1,2.5c1,0,2.2-0.4,3-1.2l1.9,2.1
		c-1.4,1.2-3.1,1.8-5.1,1.8c-3.7,0-6.2-2.5-6.2-6.3s2.5-6.3,6.1-6.3C147.5,7.3,149.9,9.8,149.9,13.6z M141.3,12.4h5.3
		c-0.3-1.5-1.2-2.4-2.6-2.4C142.5,10,141.6,11,141.3,12.4z"/>
	<path class="st0" d="M170.1,14.7c0,3.5-2.5,5.1-5.3,5.1c-2.8,0-5.3-1.6-5.3-5.1V7.8h1.8v6.7c0,2.4,1.5,3.6,3.5,3.6s3.5-1.1,3.5-3.6
		V7.8h1.9V14.7z"/>
	<path class="st0" d="M184.9,12.3v7.3h-1.8v-6.7c0-2.2-1.2-3.5-3.4-3.5c-2,0-3.6,1.4-3.6,3.6v6.6h-1.9V7.8h1.8v1.7
		c1-1.4,2.5-1.9,3.9-1.9C183,7.6,184.9,9.5,184.9,12.3z"/>
	<path class="st0" d="M198.4,9.6V1.7h1.8v17.8h-1.8v-1.7c-0.9,1.2-2.4,2-4.3,2c-3.3,0-5.9-2.6-5.9-6.1c0-3.5,2.6-6.1,5.9-6.1
		C196,7.6,197.5,8.4,198.4,9.6z M190.1,13.7c0,2.4,1.7,4.4,4.2,4.4c2.4,0,4.2-1.9,4.2-4.4c0-2.5-1.7-4.4-4.2-4.4
		C191.8,9.3,190.1,11.3,190.1,13.7z"/>
	<path class="st0" d="M15.9,46.6h-4.2L5.2,29.2h3.7l5,13.8l5-13.8h3.6L15.9,46.6z"/>
	<path class="st0" d="M33.8,40.6c0,0.4,0,0.8-0.1,1.1h-8.5c0.3,1.7,1.6,2.5,3.1,2.5c1,0,2.2-0.4,3-1.2l1.9,2.1
		c-1.4,1.2-3.1,1.8-5.1,1.8c-3.7,0-6.2-2.5-6.2-6.3s2.5-6.3,6.1-6.3C31.5,34.3,33.8,36.8,33.8,40.6z M25.3,39.4h5.3
		C30.3,37.9,29.4,37,28,37C26.5,37,25.6,38,25.3,39.4z"/>
	<path class="st0" d="M44.7,34.5l-0.5,3.2c-0.5-0.2-1.3-0.4-2-0.4c-1.5,0-2.5,0.9-2.5,2.7v6.5h-3.2v-12h3.1v1.3
		c0.8-1.1,1.9-1.6,3.4-1.6C43.7,34.3,44.2,34.4,44.7,34.5z"/>
	<path class="st0" d="M50.1,38.8h1.1l3.4-4.3h4l-4.7,5.6l4.8,6.3h-4l-3.5-4.9h-1.1v4.9h-3.2V28.7h3.2V38.8z"/>
	<path class="st0" d="M71.6,46.6h-3.2v-1.3c-0.8,1-1.9,1.6-3.6,1.6c-3.3,0-5.8-2.7-5.8-6.3s2.5-6.3,5.8-6.3c1.6,0,2.8,0.7,3.6,1.6
		v-1.3h3.2V46.6z M62.4,40.6c0,1.8,1.2,3.3,3.1,3.3c1.8,0,3.1-1.4,3.1-3.3c0-1.9-1.2-3.3-3.1-3.3C63.6,37.3,62.4,38.7,62.4,40.6z"/>
	<path class="st0" d="M86.3,41.5c0,3.8-2.7,5.4-5.7,5.4c-3,0-5.7-1.6-5.7-5.4v-6.9h3.2v6.6c0,1.9,1.1,2.7,2.5,2.7
		c1.4,0,2.5-0.8,2.5-2.7v-6.6h3.2V41.5z"/>
	<path class="st0" d="M97.6,37.4h-3.7v9.1h-3.2v-9.1h-2.2v-2.9h2.2v-1.5c0-2.8,1.5-4.7,4.3-4.7c1.6,0,2.8,0.5,3.7,1.1L97.3,32
		c-0.6-0.3-1.3-0.6-2.1-0.6c-0.9,0-1.4,0.6-1.4,1.7v1.4h3.7V37.4z"/>
	<path class="st0" d="M108.4,37.9c-1-0.5-2.5-1-3.8-1c-1.2,0-1.8,0.4-1.8,1.1c0,0.7,0.9,0.9,2,1l1.1,0.2c2.6,0.4,4,1.6,4,3.6
		c0,2.5-2,4.1-5.5,4.1c-1.6,0-3.8-0.3-5.3-1.4l1.3-2.5c1,0.7,2.3,1.2,4.1,1.2c1.5,0,2.2-0.4,2.2-1.1c0-0.6-0.6-0.9-2-1.1l-1-0.1
		c-2.8-0.4-4.1-1.6-4.1-3.6c0-2.5,1.9-3.9,5.1-3.9c1.9,0,3.4,0.4,5,1.1L108.4,37.9z"/>
	<path class="st0" d="M121,37.4h-4.3v4.4c0,1.5,0.8,2,1.8,2c0.8,0,1.6-0.4,2.3-0.8l1.2,2.5c-1.1,0.7-2.3,1.3-4,1.3
		c-3,0-4.5-1.7-4.5-4.8v-4.6h-2.3v-2.9h2.3V31h3.2v3.6h4.3V37.4z"/>
	<path class="st0" d="M135.5,46.6h-3.2v-1.3c-0.8,1-1.9,1.6-3.6,1.6c-3.3,0-5.8-2.7-5.8-6.3s2.5-6.3,5.8-6.3c1.6,0,2.8,0.7,3.6,1.6
		v-1.3h3.2V46.6z M126.2,40.6c0,1.8,1.2,3.3,3.1,3.3c1.8,0,3.1-1.4,3.1-3.3c0-1.9-1.2-3.3-3.1-3.3C127.4,37.3,126.2,38.7,126.2,40.6
		z"/>
	<path class="st0" d="M142.1,46.6h-3.2V28.7h3.2V46.6z"/>
	<path class="st0" d="M156.6,40.6c0,0.4,0,0.8-0.1,1.1h-8.5c0.3,1.7,1.6,2.5,3.1,2.5c1,0,2.2-0.4,3-1.2l1.9,2.1
		c-1.4,1.2-3.1,1.8-5.1,1.8c-3.7,0-6.2-2.5-6.2-6.3s2.5-6.3,6.1-6.3C154.2,34.3,156.6,36.8,156.6,40.6z M148.1,39.4h5.3
		c-0.3-1.5-1.2-2.4-2.6-2.4C149.2,37,148.4,38,148.1,39.4z"/>
	<path class="st0" d="M170.6,38.9v7.6h-3.2V40c0-1.7-0.9-2.7-2.3-2.7c-1.4,0-2.5,0.9-2.5,2.7v6.6h-3.2v-12h3.1V36
		c0.9-1.3,2.2-1.7,3.5-1.7C168.6,34.3,170.6,36.1,170.6,38.9z"/>
	<path class="st0" d="M182.5,37.4h-4.3v4.4c0,1.5,0.8,2,1.8,2c0.8,0,1.6-0.4,2.3-0.8l1.2,2.5c-1.1,0.7-2.3,1.3-4,1.3
		c-3,0-4.5-1.7-4.5-4.8v-4.6h-2.3v-2.9h2.3V31h3.2v3.6h4.3V37.4z"/>
	<path class="st0" d="M196.3,40.6c0,0.4,0,0.8-0.1,1.1h-8.5c0.3,1.7,1.6,2.5,3.1,2.5c1,0,2.2-0.4,3-1.2l1.9,2.1
		c-1.4,1.2-3.1,1.8-5.1,1.8c-3.7,0-6.2-2.5-6.2-6.3s2.5-6.3,6.1-6.3C193.9,34.3,196.3,36.8,196.3,40.6z M187.7,39.4h5.3
		c-0.3-1.5-1.2-2.4-2.6-2.4C188.9,37,188,38,187.7,39.4z"/>
	<path class="st0" d="M65.1,63.6v-1.8H67v10.9c0,3.8-2.6,5.9-6.2,5.9c-1.9,0-3.7-0.6-4.9-1.6l0.8-1.5c1.1,0.8,2.5,1.4,4.1,1.4
		c2.5,0,4.3-1.4,4.3-4.2v-1.2c-0.9,1.2-2.3,2-4.2,2c-3.3,0-5.8-2.5-5.8-6c0-3.5,2.5-6,5.8-6C62.8,61.6,64.2,62.4,65.1,63.6z
		 M57,67.6c0,2.4,1.6,4.3,4.1,4.3c2.4,0,4.1-1.8,4.1-4.3c0-2.4-1.7-4.3-4.1-4.3C58.6,63.3,57,65.3,57,67.6z"/>
	<path class="st0" d="M81.7,67.7c0,0.2,0,0.5,0,0.7h-9.4c0.3,2.5,2,3.8,4.1,3.8c1.4,0,2.7-0.6,3.7-1.5l1,1.3
		c-1.5,1.4-3.1,1.8-4.8,1.8c-3.5,0-5.9-2.5-5.9-6.1c0-3.6,2.5-6.1,5.8-6.1C79.4,61.6,81.7,64.1,81.7,67.7z M72.3,66.9h7.5
		c-0.2-2.2-1.7-3.6-3.7-3.6C74,63.3,72.6,64.7,72.3,66.9z"/>
	<path class="st0" d="M93,64.3c-0.8-0.5-2.3-1.1-3.8-1.1c-1.7,0-2.8,0.7-2.8,1.8c0,1,0.9,1.5,2.4,1.6l1.4,0.2
		c2.5,0.3,3.9,1.3,3.9,3.3c0,2.2-2,3.6-5.2,3.6c-1.5,0-3.4-0.4-4.9-1.5l0.9-1.4c0.9,0.7,2.1,1.3,4.1,1.3s3.2-0.7,3.2-1.9
		c0-0.9-0.8-1.5-2.5-1.7l-1.4-0.2c-2.6-0.3-3.9-1.5-3.9-3.2c0-2.2,1.9-3.6,4.7-3.6c1.8,0,3.5,0.5,4.7,1.3L93,64.3z"/>
	<path class="st0" d="M107.9,68.7c0,3.5-2.5,5.1-5.3,5.1c-2.8,0-5.3-1.6-5.3-5.1v-6.8h1.8v6.7c0,2.4,1.5,3.6,3.5,3.6
		s3.5-1.1,3.5-3.6v-6.7h1.9V68.7z"/>
	<path class="st0" d="M121.6,63.5l-1.2,1.2c-0.9-0.9-1.9-1.4-3.2-1.4c-2.4,0-4.1,1.8-4.1,4.4c0,2.5,1.8,4.4,4.1,4.4
		c1.3,0,2.4-0.6,3.2-1.4l1.2,1.3c-1.1,1.2-2.6,1.8-4.3,1.8c-3.6,0-6.1-2.6-6.1-6.1c0-3.5,2.5-6.1,6.1-6.1
		C119,61.6,120.5,62.3,121.6,63.5z"/>
	<path class="st0" d="M126.6,63.5c1-1.4,2.5-1.9,3.9-1.9c2.9,0,4.9,1.9,4.9,4.7v7.3h-1.8v-6.7c0-2.2-1.2-3.5-3.4-3.5
		c-2,0-3.6,1.4-3.6,3.6v6.6h-1.9V55.7h1.9V63.5z"/>
	<path class="st0" d="M147.4,63.5h-5.1v5.9c0,1.8,1,2.6,2.3,2.6c0.9,0,1.8-0.3,2.5-0.8l0.9,1.4c-0.9,0.7-2,1.2-3.5,1.2
		c-2.5,0-4-1.4-4-4.3v-6h-2.6v-1.7h2.6v-3.7h1.8v3.7h5.1V63.5z"/>
	<path class="st0" d="M153.3,72.2c0,0.8-0.7,1.6-1.5,1.6s-1.5-0.7-1.5-1.6s0.7-1.5,1.5-1.5S153.3,71.4,153.3,72.2z M152.6,68.1h-1.7
		l-0.3-11.8h2.3L152.6,68.1z"/>
</g>
</svg>
