<?xml version="1.0" encoding="utf-8"?>
<!-- Generator: $$$/GeneralStr/196=Adobe Illustrator 27.6.0, SVG Export Plug-In . SVG Version: 6.00 Build 0)  -->
<svg version="1.1" xmlns="http://www.w3.org/2000/svg" xmlns:xlink="http://www.w3.org/1999/xlink" x="0px" y="0px"
	 viewBox="0 0 695.9 290.3" style="enable-background:new 0 0 695.9 290.3;" xml:space="preserve">
<style type="text/css">
	.st0{fill:#005CA9;}
	.st1{fill:#E30613;}
</style>
<g id="Hintergrund">
</g>
<g id="Hilfslinien_anzeigen">
</g>
<g id="Vordergrund">
	<g>
		<path class="st0" d="M143.6,66.2l-15.5-8l5-4.7l14.6,1.7c0,0,4.9-5.7,8.3-9.2C160.1,41.6,167,35,167,35l-33.7-10.6l9.4-8.7
			l39.4,5.4c0,0,8.5-8,13-10.9c5.4-3.6,12.3-5.6,13.7-4c1.4,1.6-1,8.3-5,13.4c-3.5,4.2-12.2,12-12.2,12l2.1,39.6l-9.5,8.7l-7.6-34.4
			c0,0-7.1,6.2-12,10.1c-3.6,3-9.9,7.5-9.9,7.5l0.5,14.6l-5,4.7L143.6,66.2z"/>
		<path class="st0" d="M70.1,182.9C52.7,231.1,57,267,86.6,275.3c36.8,10.4,98-31.6,142.4-92.5h4.7c-40.4,57-109.6,110-156.2,100.4
			c-35.3-7.2-42.3-48.2-23.1-100.4H70.1z"/>
		<path class="st0" d="M91,117.2c11.3-16.2,28.6-35.2,41.2-46.9l4.9,2.6l2,5.2c-10.1,10.2-23.5,26.1-33.1,39.1L91,117.2z"/>
		<polygon class="st1" points="19.3,174.6 4.7,174.6 4.7,105 19.3,105 19.3,132.6 45,132.6 45,105 59.8,105 59.8,174.6 45.1,174.6 
			45.1,144.1 19.3,144.1 		"/>
		<path class="st1" d="M85.7,166.2c7.1-0.3,7.5-8.9,7.5-14.5c-1.9,0-4.9,0-7.5,0.5c-3.8,0.7-7.5,2.4-7.5,7.1c0,4,3,7,7,7
			C85.4,166.4,85.6,166.2,85.7,166.2z M85.7,133.1c-4.2,0.5-5.4,4.7-5.2,6.8H66.9c0.2-6.1,2.6-9.8,6.4-12c3.5-2.1,7.8-3,12.4-3
			c0.5-0.2,1-0.2,1.6-0.2c9.4,0,20,3.7,20,18.1v26.3c0,2.4,0.5,3.8,0.7,5.4H95.3c-0.3-2.3-0.5-4.5-0.5-6.4c-2.4,3.7-5.4,5.9-9.1,7
			c-1.7,0.5-3.5,0.9-5.6,0.9c-8.9,0-15.3-5.2-15.3-14.6c0-3.3,1.4-11.5,9.9-15.3c3.3-1.4,7.3-2.1,11-2.4c2.6-0.2,5.2-0.2,7.5-0.2
			v-4.5c0-1.9-1.6-5.9-6.4-5.9C86.4,132.9,86.1,132.9,85.7,133.1z"/>
		<path class="st1" d="M128.4,126.3v5.6c3-4.2,7.5-7.1,14.6-7.1c5.2,0,13.1,3.8,15,9.2c4.4-6.3,8.9-9.2,16-9.2
			c5.2,0,13.1,3.8,15,9.2c1.4,3.7,1.4,7.7,1.4,11.5v29.1h-14.1v-29.1c0-5.2-1.6-11.1-8.5-11.1c-4.4,0-8.2,4.2-8.4,11.1v29.1h-14.1
			v-29.1c0-5.2-1.4-11.1-8.4-11.1c-4.5,0-8.4,4.2-8.5,11.1v29.1h-14.1v-48.3H128.4z"/>
		<path class="st1" d="M220.4,125.1c0.9-0.2,1.7-0.3,2.6-0.3c14.6,0,22,12.7,22,25.6c0,12.4-6.4,25.6-20.2,25.6
			c-1.6,0-3-0.2-4.4-0.5c-4.2-1-7.8-3.5-10.1-7.8c-0.2,2.3-0.3,4.5-0.7,7h-13.9c0.2-3.3,0.3-6.4,0.3-9.8V105h14.1v26.8
			C212.6,128.4,216.4,126,220.4,125.1z M210.1,150.3c0,6.6,2.6,16,10.3,16c8.9-0.2,10.1-8.7,10.1-16c0-7.3-1.2-16-10.1-16
			C212.7,134.3,210.1,143.7,210.1,150.3z"/>
		<path class="st1" d="M281,174.6l-0.5-6.1c-3,4.5-7.5,7.5-14.6,7.5c-4.5,0-13.8-3.7-15.3-10.8c-0.9-3-1-5.9-1-7.7v-31.2h14.1v28.9
			c0,5.1,1.6,11.2,8.4,11.2c4.5,0,8.4-4.2,8.5-11.2v-28.9h14.1v39.5c0,2.8,0.2,5.8,0.5,8.7H281z"/>
		<path class="st1" d="M300.9,126.3h12.9l0.3,8.7c3.1-7.7,9.2-9.6,16.2-9.4v12.9h-6.1c-2.3,0.2-5.4,1.6-6.8,3.5
			c-1.6,2.8-1.9,5.4-1.9,8.5v24h-14.1v-38.7C301.4,133.8,301.1,129.8,300.9,126.3z"/>
		<path class="st1" d="M345,149.7c0,6.3,1.4,14.3,9.1,14.3c7.7,0,9.1-8,9.1-14.3c0-7.1-1.4-15.3-9.1-15.3
			C346.4,134.3,345,142.5,345,149.7z M354,193.6c-10.5-0.2-21.4-2.8-21.8-15.7h13.4c0.2,4.4,3.8,5.9,7.7,5.9h0.7
			c10.1-0.3,9.8-10.1,9.1-16.9c-2.3,3.3-5.4,5.4-9.1,6.1c-1.4,0.3-2.8,0.5-4.4,0.5c-12.7,0-19.3-12.4-19.3-24c0-12.2,7-24.7,20-24.7
			c1.4,0,2.6,0.2,3.7,0.3c4.2,0.7,7.1,2.8,8.9,6.8l0.2-5.6h14.1v43.9c0,11.2-2.4,23.5-23,23.3H354z"/>
		<path class="st1" d="M432.8,148.3h9.6l-9.2-29.6l-0.3,0.7l-9.8,28.9H432.8z M414.3,174.6h-13.9l24.4-69.5h8h9.2l23.7,69.5h-14.8
			l-4.9-14.8h-13.2h-13.6L414.3,174.6z"/>
		<path class="st1" d="M467.6,126.3h14.1v48.3h-14.1V126.3z M467.3,105h15v12.5h-15V105z"/>
		<path class="st1" d="M488.9,126.3h12.9l0.2,8.7c3.1-7.7,9.2-9.6,16.2-9.4v12.9h-6.1c-2.3,0.2-5.4,1.6-6.8,3.5
			c-1.6,2.8-1.7,5.4-1.9,8.5v24h-13.9l-0.2-38.7C489.2,133.8,489.1,129.8,488.9,126.3z"/>
		<path class="st1" d="M544.3,166.4c9.1-0.2,10.3-8.7,10.3-16c0-7.3-1.2-16-10.3-16c-7.5,0-10.1,9.4-10.1,16
			C534.2,157,536.8,166.4,544.3,166.4z M534,126.3l0.2,5.6c2.4-3.5,6.1-5.9,10.1-6.8c0.9-0.2,1.7-0.3,2.8-0.3
			c14.6,0,22,12.7,22,25.6c0,12.4-6.4,25.6-20.2,25.6c-1.6,0-3.1-0.2-4.5-0.5c-4.2-1-7.7-3.5-9.9-7.8l-0.2,25.3h-13.9v-57
			c0-3.3-0.3-6.4-0.5-9.6H534z"/>
		<path class="st1" d="M596.4,166.4c8.7,0,10.1-8.4,10.1-16c0-7.7-1.4-16-10.1-16c-8.5,0-9.9,8.4-9.9,16
			C586.4,158,587.8,166.4,596.4,166.4z M596.4,124.7c15.5,0,24.6,10.5,24.6,25.6c0,15.2-9.1,25.6-24.6,25.6
			c-15.3,0-24.6-10.5-24.6-25.6C571.8,135.2,581,124.7,596.4,124.7z"/>
		<path class="st1" d="M625,126.3h12.9l0.3,8.7c3.1-7.7,9.1-9.6,16.2-9.4v12.9h-6.1c-2.4,0.2-5.4,1.6-6.8,3.5
			c-1.6,2.8-1.9,5.4-1.9,8.5v24h-13.9l-0.2-38.7C625.5,133.8,625.1,129.8,625,126.3z"/>
		<path class="st1" d="M656.3,126.3h9.6v-9.6l13.9-5.2v14.8h10.6v9.6h-10.6v22.3c0,6.4,1,8.2,5.9,8.2c1.6,0,3-0.3,4.5-0.3v8.5
			c-1.6,0.7-9.1,1.4-11.2,1.4c-11,0-13.2-5.9-13.2-16.4v-23.7h-9.6V126.3z"/>
	</g>
</g>
</svg>
