<?xml version="1.0" encoding="utf-8"?>
<!-- Generator: $$$/GeneralStr/196=Adobe Illustrator 27.6.0, SVG Export Plug-In . SVG Version: 6.00 Build 0)  -->
<svg version="1.1" id="Ebene_1" xmlns="http://www.w3.org/2000/svg" xmlns:xlink="http://www.w3.org/1999/xlink" x="0px" y="0px"
	 viewBox="0 0 162.9 34.1" style="enable-background:new 0 0 162.9 34.1;" xml:space="preserve">
<style type="text/css">
	.st0{fill:#005CA9;}
	.st1{enable-background:new    ;}
	.st2{fill:#FFFFFF;}
</style>
<path class="st0" d="M151.5,32.9H11.4c-5.7,0-10.3-4.7-10.3-10.3V11.5c0-5.7,4.7-10.3,10.3-10.3h140.1c5.7,0,10.3,4.7,10.3,10.3
	v11.1C161.9,28.3,157.2,32.9,151.5,32.9z"/>
<g class="st1">
	<path class="st2" d="M26.7,18.6c0,2.8-1.7,4.3-4,4.3c-1.9,0-3-0.8-3.6-1.6l1.3-1.6c0.5,0.6,1.1,1,2.2,1c1.2,0,1.9-0.7,1.9-2.4v-6.9
		h2.2V18.6z"/>
	<path class="st2" d="M36.2,18.8c0,0.2,0,0.5,0,0.7h-5.5c0.2,1.1,1,1.6,2,1.6c0.7,0,1.4-0.3,2-0.7l1.2,1.3c-0.9,0.8-2,1.2-3.3,1.2
		c-2.4,0-4-1.6-4-4.1c0-2.4,1.6-4.1,3.9-4.1C34.7,14.8,36.2,16.4,36.2,18.8z M30.7,18.1h3.4c-0.2-1-0.8-1.6-1.7-1.6
		C31.5,16.6,30.9,17.1,30.7,18.1z"/>
	<path class="st2" d="M43.5,16.8h-2.8v2.8c0,1,0.5,1.3,1.2,1.3c0.5,0,1-0.2,1.5-0.5l0.8,1.6c-0.7,0.5-1.5,0.8-2.6,0.8
		c-1.9,0-2.9-1.1-2.9-3.1v-3h-1.5V15h1.5v-2.3h2.1V15h2.8V16.8z"/>
	<path class="st2" d="M51.7,16.5l-3.8,4.4h3.9v1.9H45v-1.5l3.9-4.4h-3.8V15h6.6V16.5z"/>
	<path class="st2" d="M59.3,16.8h-2.8v2.8c0,1,0.5,1.3,1.2,1.3c0.5,0,1-0.2,1.5-0.5l0.8,1.6c-0.7,0.5-1.5,0.8-2.6,0.8
		c-1.9,0-2.9-1.1-2.9-3.1v-3h-1.5V15h1.5v-2.3h2.1V15h2.8V16.8z"/>
	<path class="st2" d="M73.2,18.8c0,2.3-1.6,4.1-3.8,4.1c-1.1,0-1.8-0.4-2.3-1.1v0.9h-2V11.2h2.1v4.6c0.5-0.6,1.2-1,2.3-1
		C71.6,14.8,73.2,16.5,73.2,18.8z M67,18.8c0,1.2,0.8,2.1,2,2.1c1.2,0,2-1,2-2.1s-0.8-2.1-2-2.1C67.8,16.7,67,17.6,67,18.8z"/>
	<path class="st2" d="M82.1,18.8c0,0.2,0,0.5,0,0.7h-5.5c0.2,1.1,1,1.6,2,1.6c0.7,0,1.4-0.3,2-0.7l1.2,1.3c-0.9,0.8-2,1.2-3.3,1.2
		c-2.4,0-4-1.6-4-4.1c0-2.4,1.6-4.1,3.9-4.1C80.6,14.8,82.1,16.4,82.1,18.8z M76.6,18.1H80c-0.2-1-0.8-1.6-1.7-1.6
		C77.3,16.6,76.7,17.1,76.6,18.1z"/>
	<path class="st2" d="M92.3,20.4L94,15h2.2l-2.6,7.7h-2.4l-1.7-5.2l-1.7,5.2h-2.4L82.7,15H85l1.7,5.4l1.7-5.4h2.2L92.3,20.4z"/>
	<path class="st2" d="M104.5,18.8c0,0.2,0,0.5,0,0.7H99c0.2,1.1,1,1.6,2,1.6c0.7,0,1.4-0.3,2-0.7l1.2,1.3c-0.9,0.8-2,1.2-3.3,1.2
		c-2.4,0-4-1.6-4-4.1c0-2.4,1.6-4.1,3.9-4.1C103,14.8,104.5,16.4,104.5,18.8z M99,18.1h3.4c-0.2-1-0.8-1.6-1.7-1.6
		C99.8,16.6,99.2,17.1,99,18.1z"/>
	<path class="st2" d="M111.5,14.9l-0.3,2.1c-0.3-0.2-0.8-0.2-1.3-0.2c-1,0-1.6,0.6-1.6,1.7v4.2h-2.1V15h2v0.8
		c0.5-0.7,1.2-1.1,2.2-1.1C110.9,14.8,111.2,14.8,111.5,14.9z"/>
	<path class="st2" d="M121.1,18.8c0,2.3-1.6,4.1-3.8,4.1c-1.1,0-1.8-0.4-2.3-1.1v0.9h-2V11.2h2.1v4.6c0.5-0.6,1.2-1,2.3-1
		C119.4,14.8,121.1,16.5,121.1,18.8z M114.9,18.8c0,1.2,0.8,2.1,2,2.1c1.2,0,2-1,2-2.1s-0.8-2.1-2-2.1
		C115.7,16.7,114.9,17.6,114.9,18.8z"/>
	<path class="st2" d="M130,18.8c0,0.2,0,0.5,0,0.7h-5.5c0.2,1.1,1,1.6,2,1.6c0.7,0,1.4-0.3,2-0.7l1.2,1.3c-0.9,0.8-2,1.2-3.3,1.2
		c-2.4,0-4-1.6-4-4.1c0-2.4,1.6-4.1,3.9-4.1C128.4,14.8,130,16.4,130,18.8z M124.4,18.1h3.4c-0.2-1-0.8-1.6-1.7-1.6
		C125.2,16.6,124.6,17.1,124.4,18.1z"/>
	<path class="st2" d="M139,17.8v4.9h-2.1v-4.3c0-1.1-0.6-1.7-1.5-1.7c-0.9,0-1.6,0.6-1.6,1.8v4.2h-2.1V15h2v0.9
		c0.6-0.8,1.4-1.1,2.3-1.1C137.7,14.8,139,16,139,17.8z"/>
	<path class="st2" d="M143.8,21.4c0,0.8-0.7,1.5-1.5,1.5c-0.8,0-1.5-0.7-1.5-1.5s0.7-1.5,1.5-1.5C143.1,19.9,143.8,20.6,143.8,21.4z
		 M143.2,18.9h-1.9l-0.3-7.3h2.5L143.2,18.9z"/>
</g>
</svg>
